<svg width="16" height="13" viewBox="0 0 16 13" fill="none" xmlns="http://www.w3.org/2000/svg">
<path d="M15.92 5.62409C15.8724 5.50134 15.801 5.3892 15.71 5.29409L10.71 0.294092C10.6168 0.200853 10.5061 0.126893 10.3843 0.0764322C10.2624 0.0259719 10.1319 0 10 0C9.7337 0 9.4783 0.105788 9.29 0.294092C9.19676 0.38733 9.1228 0.498021 9.07234 0.619843C9.02188 0.741665 8.99591 0.872233 8.99591 1.00409C8.99591 1.27039 9.1017 1.52579 9.29 1.71409L12.59 5.00409H1C0.734784 5.00409 0.48043 5.10945 0.292893 5.29699C0.105357 5.48452 0 5.73888 0 6.00409C0 6.26931 0.105357 6.52366 0.292893 6.7112C0.48043 6.89873 0.734784 7.00409 1 7.00409L12.59 7.00409L9.29 10.2941C9.19627 10.3871 9.12188 10.4977 9.07111 10.6195C9.02034 10.7414 8.9942 10.8721 8.9942 11.0041C8.9942 11.1361 9.02034 11.2668 9.07111 11.3887C9.12188 11.5105 9.19627 11.6211 9.29 11.7141C9.38296 11.8078 9.49356 11.8822 9.61542 11.933C9.73728 11.9838 9.86799 12.0099 10 12.0099C10.132 12.0099 10.2627 11.9838 10.3846 11.933C10.5064 11.8822 10.617 11.8078 10.71 11.7141L15.71 6.71409C15.801 6.61899 15.8724 6.50684 15.92 6.38409C16.02 6.14063 16.02 5.86755 15.92 5.62409Z" fill="#323A56"/>
</svg>
