<svg width="20" height="20" viewBox="0 0 20 20" fill="none" xmlns="http://www.w3.org/2000/svg">
<g clip-path="url(#clip0_585_4700)">
<path d="M16.6667 0H3.33333C2.44928 0 1.60143 0.35119 0.976311 0.976311C0.35119 1.60143 0 2.44928 0 3.33333L0 13.3333C0 14.2174 0.35119 15.0652 0.976311 15.6904C1.60143 16.3155 2.44928 16.6667 3.33333 16.6667H5.75L9.45917 19.8025C9.60964 19.9298 9.80038 19.9997 9.9975 19.9997C10.1946 19.9997 10.3854 19.9298 10.5358 19.8025L14.25 16.6667H16.6667C17.5507 16.6667 18.3986 16.3155 19.0237 15.6904C19.6488 15.0652 20 14.2174 20 13.3333V3.33333C20 2.44928 19.6488 1.60143 19.0237 0.976311C18.3986 0.35119 17.5507 0 16.6667 0V0ZM18.3333 13.3333C18.3333 13.7754 18.1577 14.1993 17.8452 14.5118C17.5326 14.8244 17.1087 15 16.6667 15H14.25C13.8561 15.0001 13.4749 15.1398 13.1742 15.3942L10 18.075L6.8275 15.3942C6.5263 15.1394 6.1445 14.9997 5.75 15H3.33333C2.89131 15 2.46738 14.8244 2.15482 14.5118C1.84226 14.1993 1.66667 13.7754 1.66667 13.3333V3.33333C1.66667 2.89131 1.84226 2.46738 2.15482 2.15482C2.46738 1.84226 2.89131 1.66667 3.33333 1.66667H16.6667C17.1087 1.66667 17.5326 1.84226 17.8452 2.15482C18.1577 2.46738 18.3333 2.89131 18.3333 3.33333V13.3333Z" fill="#1D72D2"/>
<path d="M5.83333 5.83347H10C10.221 5.83347 10.433 5.74567 10.5893 5.58939C10.7455 5.43311 10.8333 5.22115 10.8333 5.00014C10.8333 4.77913 10.7455 4.56717 10.5893 4.41089C10.433 4.25461 10.221 4.16681 10 4.16681H5.83333C5.61232 4.16681 5.40036 4.25461 5.24408 4.41089C5.0878 4.56717 5 4.77913 5 5.00014C5 5.22115 5.0878 5.43311 5.24408 5.58939C5.40036 5.74567 5.61232 5.83347 5.83333 5.83347Z" fill="#1D72D2"/>
<path d="M14.1667 7.5H5.83333C5.61232 7.5 5.40036 7.5878 5.24408 7.74408C5.0878 7.90036 5 8.11232 5 8.33333C5 8.55434 5.0878 8.76631 5.24408 8.92259C5.40036 9.07887 5.61232 9.16666 5.83333 9.16666H14.1667C14.3877 9.16666 14.5996 9.07887 14.7559 8.92259C14.9122 8.76631 15 8.55434 15 8.33333C15 8.11232 14.9122 7.90036 14.7559 7.74408C14.5996 7.5878 14.3877 7.5 14.1667 7.5Z" fill="#1D72D2"/>
<path d="M14.1667 10.8332H5.83333C5.61232 10.8332 5.40036 10.921 5.24408 11.0773C5.0878 11.2336 5 11.4455 5 11.6665C5 11.8875 5.0878 12.0995 5.24408 12.2558C5.40036 12.4121 5.61232 12.4999 5.83333 12.4999H14.1667C14.3877 12.4999 14.5996 12.4121 14.7559 12.2558C14.9122 12.0995 15 11.8875 15 11.6665C15 11.4455 14.9122 11.2336 14.7559 11.0773C14.5996 10.921 14.3877 10.8332 14.1667 10.8332Z" fill="#1D72D2"/>
</g>
<defs>
<clipPath id="clip0_585_4700">
<rect width="20" height="20" fill="white"/>
</clipPath>
</defs>
</svg>
