<svg width="24" height="24" viewBox="0 0 24 24" fill="none" xmlns="http://www.w3.org/2000/svg">
<g clip-path="url(#clip0_76_354)">
<path d="M20.3175 4.49197C18.7875 3.80197 17.1475 3.29197 15.4325 3.00197C15.4172 2.99904 15.4014 3.00093 15.3872 3.00738C15.3731 3.01383 15.3613 3.02452 15.3535 3.03797C15.1435 3.40697 14.9095 3.88797 14.7455 4.26797C12.9266 3.99621 11.0774 3.99621 9.25848 4.26797C9.07582 3.84683 8.86983 3.4362 8.64148 3.03797C8.63374 3.02436 8.62203 3.01342 8.60792 3.00663C8.5938 2.99984 8.57795 2.99752 8.56248 2.99997C6.84848 3.28997 5.20848 3.79997 3.67748 4.49097C3.66431 4.4965 3.65314 4.50592 3.64548 4.51797C0.533481 9.09297 -0.319519 13.555 0.0994806 17.961C0.100647 17.9718 0.103996 17.9822 0.109326 17.9917C0.114655 18.0011 0.121853 18.0094 0.130481 18.016C1.94687 19.3384 3.97282 20.3458 6.12348 20.996C6.13847 21.0006 6.15451 21.0006 6.16949 20.9959C6.18448 20.9913 6.19772 20.9823 6.20748 20.97C6.67028 20.351 7.08038 19.6944 7.43348 19.007C7.43838 18.9976 7.44121 18.9872 7.44176 18.9766C7.44232 18.9661 7.4406 18.9555 7.43671 18.9456C7.43282 18.9358 7.42686 18.9268 7.41923 18.9195C7.4116 18.9121 7.40248 18.9065 7.39248 18.903C6.74649 18.6597 6.12057 18.3661 5.52048 18.025C5.5097 18.0188 5.50061 18.0101 5.49404 17.9995C5.48746 17.989 5.48361 17.977 5.48281 17.9646C5.48202 17.9522 5.48432 17.9398 5.48949 17.9286C5.49467 17.9173 5.50257 17.9075 5.51248 17.9C5.63848 17.807 5.76448 17.71 5.88448 17.613C5.89528 17.6043 5.90829 17.5987 5.92206 17.5969C5.93584 17.5952 5.94983 17.5973 5.96248 17.603C9.88948 19.367 14.1425 19.367 18.0235 17.603C18.0362 17.5969 18.0503 17.5946 18.0643 17.5961C18.0782 17.5977 18.0915 17.6032 18.1025 17.612C18.2225 17.71 18.3475 17.807 18.4745 17.9C18.4845 17.9073 18.4925 17.917 18.4979 17.9282C18.5032 17.9394 18.5057 17.9517 18.5051 17.9641C18.5045 17.9765 18.5008 17.9885 18.4945 17.9991C18.4881 18.0098 18.4791 18.0186 18.4685 18.025C17.8705 18.369 17.2485 18.66 16.5955 18.902C16.5855 18.9056 16.5763 18.9114 16.5687 18.9188C16.561 18.9263 16.5551 18.9353 16.5512 18.9452C16.5473 18.9551 16.5456 18.9658 16.5462 18.9764C16.5467 18.9871 16.5496 18.9975 16.5545 19.007C16.9145 19.694 17.3265 20.348 17.7795 20.969C17.7889 20.9817 17.802 20.9912 17.8171 20.9963C17.8321 21.0013 17.8483 21.0015 17.8635 20.997C20.0178 20.3486 22.0471 19.3407 23.8655 18.016C23.8744 18.0098 23.8818 18.0017 23.8873 17.9924C23.8928 17.9831 23.8963 17.9727 23.8975 17.962C24.3975 12.868 23.0595 8.44197 20.3485 4.51997C20.3418 4.50723 20.3308 4.49729 20.3175 4.49197ZM8.02048 15.278C6.83848 15.278 5.86348 14.209 5.86348 12.898C5.86348 11.586 6.81948 10.518 8.02048 10.518C9.23048 10.518 10.1965 11.595 10.1775 12.898C10.1775 14.21 9.22148 15.278 8.02048 15.278ZM15.9955 15.278C14.8125 15.278 13.8385 14.209 13.8385 12.898C13.8385 11.586 14.7935 10.518 15.9955 10.518C17.2055 10.518 18.1715 11.595 18.1525 12.898C18.1525 14.21 17.2065 15.278 15.9955 15.278Z" fill="white"/>
</g>
<defs>
<clipPath id="clip0_76_354">
<rect width="24" height="24" fill="white"/>
</clipPath>
</defs>
</svg>
