<svg width="16" height="16" viewBox="0 0 16 16" fill="none" xmlns="http://www.w3.org/2000/svg">
<path d="M12.8996 1.29812C12.5666 1.16728 12.0895 1.02703 11.2568 0.987882L11.2551 0.987805L12.718 1.764M12.8996 1.29812C12.9 1.29832 12.9005 1.29851 12.901 1.2987L12.718 1.764M12.8996 1.29812C12.8991 1.29794 12.8986 1.29775 12.8981 1.29756L12.718 1.764M12.8996 1.29812C13.3385 1.4678 13.662 1.67923 13.9916 2.00652L13.9933 2.0082C14.3219 2.33761 14.5335 2.66259 14.7031 3.1019M12.718 1.764C13.0927 1.90867 13.358 2.082 13.6393 2.36133C13.9187 2.64133 14.092 2.90733 14.2367 3.282M14.7031 3.1019C14.703 3.10156 14.7028 3.10122 14.7027 3.10088L14.2367 3.282M14.7031 3.1019C14.8316 3.43278 14.9737 3.90946 15.0115 4.74404L15.0115 4.74418C15.05 5.59943 15.0587 5.86157 15.0587 8C15.0587 10.139 15.0487 10.4019 15.0088 11.2566L15.0087 11.2594C14.9654 12.0899 14.8248 12.5656 14.6956 12.8969C14.5404 13.3094 14.2974 13.6832 13.9833 13.9925C13.6748 14.3074 13.3004 14.5504 12.8871 14.704C12.5561 14.8329 12.0728 14.9739 11.242 15.0115L11.2417 15.0115C10.3812 15.05 10.1225 15.0587 7.98 15.0587C5.83626 15.0587 5.57745 15.0487 4.71752 15.0088L4.71466 15.0087C3.88577 14.9655 3.40329 14.8256 3.07173 14.6958C2.65894 14.5423 2.28537 14.2991 1.97793 13.9838C1.65991 13.6767 1.41552 13.3016 1.26309 12.8865C1.13327 12.5547 0.994458 12.0723 0.951345 11.2454L0.950918 11.2372L0.950985 11.2372L0.949579 11.1978C0.920373 10.3806 0.91 10.0903 0.91 7.99C0.91 5.89188 0.920346 5.59898 0.949451 4.77493L0.950978 4.7317L0.951274 4.7233L0.951345 4.7233C0.994492 3.89573 1.13348 3.41394 1.26335 3.08212C1.43139 2.62809 1.65357 2.30932 1.97711 1.98578C2.29908 1.66381 2.61846 1.44087 3.07184 1.27345L7.97 1.42C5.86332 1.42 5.58874 1.4297 4.76918 1.45864L4.73067 1.46C3.95067 1.5 3.53 1.63 3.25 1.74067C2.87067 1.88 2.61 2.06 2.33067 2.33933C2.05 2.62 1.87067 2.88 1.73067 3.26C1.62067 3.54 1.49133 3.96933 1.45067 4.74933L1.44895 4.79791C1.42026 5.61007 1.41 5.90046 1.41 7.99C1.41 10.0816 1.42029 10.3694 1.44906 11.1745L1.45067 11.2193C1.49133 11.9993 1.62067 12.4293 1.73067 12.7093C1.85781 13.0578 2.06305 13.3725 2.33067 13.6293C2.58845 13.8953 2.9026 14.1001 3.25 14.2287C3.53 14.3387 3.96 14.4687 4.74067 14.5093C5.58933 14.5487 5.83933 14.5587 7.98 14.5587C10.12 14.5587 10.37 14.55 11.2193 14.512C11.9993 14.4767 12.4293 14.346 12.7093 14.2367C13.0565 14.1082 13.3708 13.9042 13.6293 13.6393C13.894 13.3796 14.0985 13.0652 14.2287 12.718C14.3387 12.4367 14.4687 12.0133 14.5093 11.2333C14.5487 10.39 14.5587 10.136 14.5587 8C14.5587 5.864 14.55 5.61067 14.512 4.76667C14.4767 3.98667 14.346 3.56333 14.2367 3.282M14.7031 3.1019L14.2367 3.282M2.9408 0.886168L2.94096 0.886105C3.39403 0.710208 3.91976 0.585324 4.72487 0.547477C5.56684 0.509984 5.83008 0.5 8 0.5C10.1715 0.5 10.4334 0.508019 11.2746 0.547452L11.2749 0.547467C12.0792 0.584624 12.6056 0.71008 13.059 0.886105L13.059 0.886138L13.0646 0.88823C13.5304 1.06269 13.9521 1.33725 14.3001 1.69255L14.3001 1.69261L14.3069 1.69929C14.6619 2.0482 14.9367 2.47027 15.1121 2.93615L15.112 2.93616L15.1138 2.94063C15.2892 3.39346 15.4147 3.92077 15.4525 4.72512C15.49 5.56689 15.5 5.8303 15.5 8C15.5 10.1715 15.492 10.4334 15.4525 11.2746L15.4525 11.2749C15.4154 12.0788 15.2894 12.6055 15.1137 13.0596L15.1137 13.0596L15.1119 13.0644C14.9371 13.5302 14.6625 13.952 14.3073 14.3003L14.3072 14.3003L14.3008 14.3068C13.9517 14.6618 13.5296 14.9366 13.0637 15.1121L13.0637 15.1121L13.0596 15.1137C12.6059 15.2892 12.0791 15.4147 11.2749 15.4525C10.4331 15.49 10.1697 15.5 8 15.5C5.82847 15.5 5.56665 15.492 4.72541 15.4525L4.72508 15.4525C3.92136 15.4154 3.39515 15.2894 2.94022 15.1136L2.94023 15.1136L2.93576 15.1119C2.46995 14.937 2.04803 14.6623 1.69958 14.3072L1.69964 14.3071L1.69306 14.3006C1.33798 13.9518 1.06324 13.5298 0.887978 13.0639L0.888003 13.0639L0.886105 13.059C0.710224 12.606 0.585327 12.0796 0.547478 11.2751C0.509984 10.4332 0.5 10.1699 0.5 8C0.5 5.82847 0.508019 5.56665 0.547452 4.72541L0.547468 4.72506C0.584624 3.92022 0.710066 3.39439 0.886106 2.94096L0.886444 2.94008C1.0661 2.47475 1.30362 2.08882 1.69622 1.69622C2.08845 1.30399 2.47509 1.06679 2.9408 0.886168ZM8 1.44L8.27735 1.02397L8.24735 1.00397L8.15142 0.940019C8.10201 0.940006 8.05155 0.94 8 0.94V1.375V1.44ZM6.61928 4.66664C7.05702 4.48532 7.52619 4.392 8 4.392C8.9569 4.392 9.87461 4.77213 10.5512 5.44876C11.2279 6.12539 11.608 7.0431 11.608 8C11.608 8.9569 11.2279 9.87461 10.5512 10.5512C9.87461 11.2279 8.9569 11.608 8 11.608C7.52619 11.608 7.05702 11.5147 6.61928 11.3334C6.18154 11.152 5.78379 10.8863 5.44876 10.5512C5.11372 10.2162 4.84796 9.81846 4.66664 9.38072C4.48532 8.94298 4.392 8.47381 4.392 8C4.392 7.52619 4.48532 7.05702 4.66664 6.61928C4.84796 6.18154 5.11373 5.78379 5.44876 5.44876C5.78379 5.11373 6.18154 4.84796 6.61928 4.66664ZM4.83333 8C4.83333 9.74948 6.25052 11.1667 8 11.1667C9.74948 11.1667 11.1667 9.74948 11.1667 8C11.1667 6.25052 9.74948 4.83333 8 4.83333C6.25052 4.83333 4.83333 6.25052 4.83333 8Z" fill="#169FED" stroke="white"/>
</svg>
