<svg width="16" height="16" viewBox="0 0 16 16" fill="none" xmlns="http://www.w3.org/2000/svg">
<path fill-rule="evenodd" clip-rule="evenodd" d="M6.28567 5.97901H8.76167V7.21234C9.11834 6.50301 10.033 5.86567 11.407 5.86567C14.041 5.86567 14.6663 7.27767 14.6663 9.86834V14.6663H11.9997V10.4583C11.9997 8.98301 11.643 8.15101 10.735 8.15101C9.47568 8.15101 8.95234 9.04767 8.95234 10.4577V14.6663H6.28567V5.97901ZM1.71301 14.553H4.37967V5.86567H1.71301V14.553ZM4.76167 3.03301C4.76177 3.25652 4.71745 3.47783 4.63127 3.68407C4.54509 3.8903 4.41878 4.07735 4.25967 4.23434C3.93727 4.55476 3.50088 4.73411 3.04634 4.73301C2.5926 4.7327 2.15722 4.55381 1.83434 4.23501C1.67582 4.07748 1.54993 3.89022 1.4639 3.68396C1.37788 3.4777 1.33339 3.25649 1.33301 3.03301C1.33301 2.58167 1.51301 2.14967 1.83501 1.83101C2.1576 1.51178 2.59317 1.33281 3.04701 1.33301C3.50167 1.33301 3.93767 1.51234 4.25967 1.83101C4.58101 2.14967 4.76167 2.58167 4.76167 3.03301Z" fill="#1D72D2"/>
</svg>
