<svg width="20" height="20" viewBox="0 0 20 20" fill="none" xmlns="http://www.w3.org/2000/svg">
<path d="M10.0002 0C8.18443 4.11494e-05 6.40957 0.539346 4.90073 1.54951C3.39189 2.55968 2.21704 3.9952 1.5252 5.67401C0.833362 7.35282 0.655693 9.19928 1.01473 10.9792C1.37376 12.7591 2.25333 14.3923 3.54187 15.6717L6.8277 18.7058C7.67227 19.5326 8.80622 19.9969 9.98807 20C11.1699 20.0031 12.3063 19.5448 13.1552 18.7225L16.4819 15.6483C17.7638 14.3664 18.6368 12.733 18.9905 10.9549C19.3441 9.1768 19.1626 7.33373 18.4688 5.65877C17.775 3.98382 16.6002 2.55221 15.0928 1.54495C13.5854 0.537704 11.8132 5.75492e-05 10.0002 0V0ZM15.3269 14.4475L12.0069 17.515C11.461 18.0293 10.7385 18.3145 9.98846 18.3117C9.23844 18.3089 8.5181 18.0184 7.97604 17.5L4.69687 14.47C3.82475 13.5979 3.18117 12.5241 2.82314 11.3438C2.46512 10.1636 2.40369 8.91322 2.64432 7.70354C2.88494 6.49386 3.42018 5.36219 4.20263 4.40878C4.98507 3.45537 5.99058 2.70963 7.13007 2.23764C8.26956 1.76564 9.50787 1.58196 10.7353 1.70284C11.9627 1.82373 13.1414 2.24547 14.1669 2.93069C15.1925 3.61591 16.0332 4.54347 16.6146 5.63121C17.196 6.71895 17.5002 7.93329 17.5002 9.16667C17.5039 10.1467 17.3137 11.1178 16.9408 12.0241C16.5678 12.9303 16.0193 13.7539 15.3269 14.4475ZM13.9252 6.38583L11.4252 4.65167C11.0064 4.36224 10.5093 4.20722 10.0002 4.20722C9.49109 4.20722 8.99405 4.36224 8.5752 4.65167L6.0752 6.38583C5.74346 6.61597 5.47239 6.92304 5.28518 7.28077C5.09798 7.6385 5.00019 8.03625 5.0002 8.44V11.25C5.0002 11.8025 5.2197 12.3324 5.6104 12.7231C6.0011 13.1138 6.531 13.3333 7.08354 13.3333H12.9169C13.4694 13.3333 13.9993 13.1138 14.39 12.7231C14.7807 12.3324 15.0002 11.8025 15.0002 11.25V8.44C15.0002 8.03625 14.9024 7.6385 14.7152 7.28077C14.528 6.92304 14.2569 6.61597 13.9252 6.38583ZM13.3335 11.25C13.3335 11.3605 13.2896 11.4665 13.2115 11.5446C13.1334 11.6228 13.0274 11.6667 12.9169 11.6667H11.6669V10C11.6669 9.77899 11.5791 9.56703 11.4228 9.41075C11.2665 9.25447 11.0546 9.16667 10.8335 9.16667H9.16687C8.94586 9.16667 8.73389 9.25447 8.57761 9.41075C8.42133 9.56703 8.33354 9.77899 8.33354 10V11.6667H7.08354C6.97303 11.6667 6.86705 11.6228 6.78891 11.5446C6.71077 11.4665 6.66687 11.3605 6.66687 11.25V8.44C6.66682 8.30537 6.69939 8.17273 6.7618 8.05344C6.8242 7.93414 6.91458 7.83174 7.0252 7.755L9.5252 6.02083C9.66496 5.92473 9.83059 5.87328 10.0002 5.87328C10.1698 5.87328 10.3354 5.92473 10.4752 6.02083L12.9752 7.755C13.0858 7.83174 13.1762 7.93414 13.2386 8.05344C13.301 8.17273 13.3336 8.30537 13.3335 8.44V11.25Z" fill="#1D72D2"/>
</svg>
