<svg width="148" height="44" viewBox="0 0 148 44" fill="none" xmlns="http://www.w3.org/2000/svg">
<path d="M1.07695 24.6C-0.358983 23.164 -0.358983 20.8359 1.07695 19.4C2.51288 17.9641 4.84099 17.9641 6.27692 19.4L12.3435 25.4666C13.7795 26.9026 13.7795 29.2307 12.3435 30.6666C10.9076 32.1025 8.57951 32.1025 7.14358 30.6666L1.07695 24.6Z" fill="#1D72D2"/>
<path d="M19.4 1.07695C20.8359 -0.358983 23.1641 -0.358983 24.6 1.07695C26.0359 2.51288 26.0359 4.84099 24.6 6.27692L18.5334 12.3435C17.0974 13.7795 14.7693 13.7795 13.3334 12.3435C11.8975 10.9076 11.8975 8.57951 13.3334 7.14358L19.4 1.07695Z" fill="#1D72D2"/>
<path d="M25.5898 24.6C24.1539 23.164 24.1539 20.8359 25.5898 19.4C27.0258 17.9641 29.3539 17.9641 30.7898 19.4L36.8564 25.4666C38.2924 26.9026 38.2924 29.2307 36.8564 30.6666C35.4205 32.1025 33.0924 32.1025 31.6565 30.6666L25.5898 24.6Z" fill="#1D72D2"/>
<path d="M19.4 25.5898C20.8359 24.1539 23.1641 24.1539 24.6 25.5898C26.0359 27.0258 26.0359 29.3539 24.6 30.7898L18.5334 36.8564C17.0974 38.2924 14.7693 38.2924 13.3334 36.8564C11.8975 35.4205 11.8975 33.0924 13.3334 31.6565L19.4 25.5898Z" fill="#1D72D2"/>
<path d="M7.14357 18.5333C5.70763 17.0974 5.70763 14.7693 7.14357 13.3334C8.5795 11.8974 10.9076 11.8974 12.3435 13.3334L18.4102 19.4C19.8461 20.8359 19.8461 23.164 18.4102 24.6C16.9742 26.0359 14.6461 26.0359 13.2102 24.6L7.14357 18.5333Z" fill="#1D72D2"/>
<path d="M25.4666 7.14357C26.9026 5.70763 29.2307 5.70763 30.6666 7.14357C32.1025 8.5795 32.1025 10.9076 30.6666 12.3435L24.6 18.4102C23.164 19.8461 20.8359 19.8461 19.4 18.4102C17.9641 16.9742 17.9641 14.6461 19.4 13.2102L25.4666 7.14357Z" fill="#1D72D2"/>
<path d="M31.6565 18.5333C30.2205 17.0974 30.2205 14.7693 31.6565 13.3334C33.0924 11.8974 35.4205 11.8974 36.8564 13.3334L42.9231 19.4C44.359 20.8359 44.359 23.164 42.9231 24.6C41.4871 26.0359 39.159 26.0359 37.7231 24.6L31.6565 18.5333Z" fill="#1D72D2"/>
<path d="M25.4666 31.6565C26.9026 30.2205 29.2307 30.2205 30.6666 31.6565C32.1025 33.0924 32.1025 35.4205 30.6666 36.8564L24.6 42.9231C23.164 44.359 20.8359 44.359 19.4 42.9231C17.9641 41.4871 17.9641 39.159 19.4 37.7231L25.4666 31.6565Z" fill="#1D72D2"/>
<path d="M59.654 17H63.38L65.468 8.684L67.484 17H71.21L74.504 4.364H71.192L69.356 13.562L67.196 4.364H63.812L61.562 13.562L59.744 4.364H56.45L59.654 17ZM80.4756 9.278C81.5016 9.278 82.3656 9.908 82.3656 11.006H78.5136C78.6936 9.89 79.4676 9.278 80.4756 9.278ZM85.2816 13.67H82.0056C81.7536 14.21 81.2676 14.642 80.4036 14.642C79.4136 14.642 78.6036 14.03 78.4956 12.716H85.4616C85.4976 12.41 85.5156 12.104 85.5156 11.816C85.5156 8.756 83.4456 6.812 80.5116 6.812C77.5236 6.812 75.4356 8.792 75.4356 11.978C75.4356 15.164 77.5596 17.144 80.5116 17.144C83.0136 17.144 84.7956 15.632 85.2816 13.67ZM90.2174 8.378V3.68H87.1394V17H90.2174V15.596C90.7754 16.478 91.8374 17.144 93.3134 17.144C95.7794 17.144 97.7414 15.128 97.7414 11.96C97.7414 8.792 95.7974 6.812 93.3134 6.812C91.8734 6.812 90.7754 7.478 90.2174 8.378ZM94.6094 11.96C94.6094 13.562 93.5654 14.462 92.3954 14.462C91.2434 14.462 90.1994 13.58 90.1994 11.978C90.1994 10.376 91.2434 9.494 92.3954 9.494C93.5654 9.494 94.6094 10.358 94.6094 11.96ZM102.434 8.378V3.68H99.3562V17H102.434V15.596C102.992 16.478 104.054 17.144 105.53 17.144C107.996 17.144 109.958 15.128 109.958 11.96C109.958 8.792 108.014 6.812 105.53 6.812C104.09 6.812 102.992 7.478 102.434 8.378ZM106.826 11.96C106.826 13.562 105.782 14.462 104.612 14.462C103.46 14.462 102.416 13.58 102.416 11.978C102.416 10.376 103.46 9.494 104.612 9.494C105.782 9.494 106.826 10.358 106.826 11.96ZM114.651 12.338C114.651 10.61 115.497 10.106 116.955 10.106H117.801V6.848C116.451 6.848 115.353 7.568 114.651 8.63V6.956H111.573V17H114.651V12.338ZM118.66 11.96C118.66 15.128 120.622 17.144 123.07 17.144C124.564 17.144 125.626 16.46 126.184 15.578V17H129.262V6.956H126.184V8.378C125.644 7.496 124.582 6.812 123.088 6.812C120.622 6.812 118.66 8.792 118.66 11.96ZM126.184 11.978C126.184 13.58 125.158 14.462 123.988 14.462C122.836 14.462 121.792 13.562 121.792 11.96C121.792 10.358 122.836 9.494 123.988 9.494C125.158 9.494 126.184 10.376 126.184 11.978ZM131.489 17H134.567V6.956H131.489V17ZM133.037 5.912C134.117 5.912 134.855 5.174 134.855 4.256C134.855 3.32 134.117 2.582 133.037 2.582C131.939 2.582 131.201 3.32 131.201 4.256C131.201 5.174 131.939 5.912 133.037 5.912ZM143.728 17H146.788V11.132C146.788 8.432 145.24 6.848 142.918 6.848C141.568 6.848 140.488 7.442 139.876 8.288V6.956H136.798V17H139.876V11.546C139.876 10.178 140.632 9.422 141.802 9.422C142.972 9.422 143.728 10.178 143.728 11.546V17ZM63.63 37H64.974L61.46 27.298H59.99L56.462 37H57.806L58.59 34.83H62.846L63.63 37ZM62.482 33.794H58.954L60.718 28.866L62.482 33.794ZM66.0356 33.15C66.0356 35.586 67.5896 37.126 69.7736 37.126C71.6776 37.126 72.9236 36.062 73.3156 34.536H71.9436C71.6636 35.502 70.9076 36.048 69.7736 36.048C68.3736 36.048 67.3376 35.054 67.3376 33.15C67.3376 31.274 68.3736 30.28 69.7736 30.28C70.9076 30.28 71.6776 30.868 71.9436 31.792H73.3156C72.9236 30.182 71.6776 29.202 69.7736 29.202C67.5896 29.202 66.0356 30.742 66.0356 33.15ZM74.5395 33.136C74.5395 35.516 76.1215 37.126 78.1655 37.126C79.5795 37.126 80.5735 36.398 81.0355 35.572V37H82.3235V29.328H81.0355V30.728C80.5875 29.93 79.6075 29.202 78.1795 29.202C76.1215 29.202 74.5395 30.742 74.5395 33.136ZM81.0355 33.15C81.0355 34.956 79.8315 36.006 78.4315 36.006C77.0315 36.006 75.8415 34.942 75.8415 33.136C75.8415 31.33 77.0315 30.308 78.4315 30.308C79.8315 30.308 81.0355 31.372 81.0355 33.15ZM84.0004 33.136C84.0004 35.516 85.5824 37.126 87.6404 37.126C89.0404 37.126 90.0344 36.412 90.4964 35.558V37H91.7844V26.64H90.4964V30.7C89.9644 29.818 88.8584 29.202 87.6544 29.202C85.5824 29.202 84.0004 30.742 84.0004 33.136ZM90.4964 33.15C90.4964 34.956 89.2924 36.006 87.8924 36.006C86.4924 36.006 85.3024 34.942 85.3024 33.136C85.3024 31.33 86.4924 30.308 87.8924 30.308C89.2924 30.308 90.4964 31.372 90.4964 33.15ZM97.1994 30.28C98.5154 30.28 99.6354 31.106 99.6214 32.604H94.7774C94.9174 31.106 95.9534 30.28 97.1994 30.28ZM100.783 34.634H99.4114C99.1314 35.46 98.4034 36.048 97.2554 36.048C95.9534 36.048 94.8614 35.194 94.7634 33.64H100.895C100.923 33.374 100.937 33.15 100.937 32.87C100.937 30.77 99.4814 29.202 97.2554 29.202C95.0154 29.202 93.4614 30.728 93.4614 33.15C93.4614 35.586 95.0714 37.126 97.2554 37.126C99.1594 37.126 100.391 36.034 100.783 34.634ZM113.693 37H114.953V32.478C114.953 30.28 113.595 29.188 111.845 29.188C110.669 29.188 109.577 29.79 109.129 30.896C108.625 29.748 107.575 29.188 106.315 29.188C105.307 29.188 104.397 29.622 103.893 30.434V29.328H102.619V37H103.893V32.772C103.893 31.12 104.775 30.294 106.063 30.294C107.323 30.294 108.163 31.092 108.163 32.66V37H109.423V32.772C109.423 31.12 110.305 30.294 111.593 30.294C112.853 30.294 113.693 31.092 113.693 32.66V37ZM119.955 35.544L117.547 29.328H116.133L119.227 36.916L117.715 40.612H119.031L123.651 29.328H122.335L119.955 35.544Z" fill="#1D72D2"/>
</svg>
