<svg width="40" height="41" viewBox="0 0 40 41" fill="none" xmlns="http://www.w3.org/2000/svg">
<path d="M29.5461 2.92526C26.3769 1.20385 22.8013 0.37142 19.1977 0.5161C15.5941 0.660779 12.0966 1.77718 9.07568 3.74711C6.05471 5.71704 3.62262 8.46719 2.03691 11.7064C0.451205 14.9456 -0.229118 18.5533 0.067975 22.1475C0.365068 25.7418 1.62852 29.1888 3.72456 32.1237C5.82061 35.0586 8.67124 37.3721 11.9747 38.8192C15.2781 40.2664 18.9113 40.7934 22.4898 40.3444C26.0682 39.8954 29.4587 38.4872 32.3022 36.2688L27.8509 30.5632C26.0363 31.979 23.8726 32.8777 21.5889 33.1642C19.3053 33.4507 16.9866 33.1144 14.8784 32.1908C12.7703 31.2673 10.9511 29.7909 9.61345 27.9179C8.27582 26.045 7.46951 23.8452 7.27992 21.5514C7.09032 19.2577 7.52448 16.9553 8.53644 14.8882C9.5484 12.821 11.1005 11.0659 13.0284 9.80876C14.9563 8.5516 17.1883 7.83914 19.488 7.74681C21.7877 7.65448 24.0696 8.18572 26.0921 9.28427L29.5461 2.92526Z" fill="#5C6FF9"/>
<path d="M37.3723 30.4098C39.3581 26.9286 40.2522 22.9311 39.9387 18.9356C39.6252 14.9401 38.1186 11.131 35.6142 8.00212L29.9646 12.5242C31.5628 14.521 32.5243 16.9519 32.7244 19.5017C32.9244 22.0515 32.3538 24.6026 31.0865 26.8242L37.3723 30.4098Z" fill="#A6C2FB"/>
</svg>
