<svg width="16" height="16" viewBox="0 0 16 16" fill="none" xmlns="http://www.w3.org/2000/svg">
<path d="M15.4603 5.88426C15.4131 5.74541 15.3264 5.6234 15.2107 5.5333C15.095 5.44321 14.9554 5.38896 14.8093 5.37726L10.5335 5.03751L8.68327 0.941761C8.62434 0.809845 8.5285 0.697802 8.4073 0.619154C8.28611 0.540506 8.14474 0.498615 8.00026 0.498535C7.85578 0.498456 7.71437 0.540192 7.59309 0.618707C7.47181 0.697222 7.37584 0.80916 7.31677 0.941011L5.46652 5.03751L1.19077 5.37726C1.04711 5.38864 0.909773 5.44117 0.795186 5.52856C0.680599 5.61595 0.593614 5.7345 0.54464 5.87003C0.495665 6.00556 0.486773 6.15234 0.519028 6.29279C0.551284 6.43324 0.62332 6.56143 0.72652 6.66201L3.88627 9.74226L2.76877 14.5813C2.73484 14.7277 2.74571 14.881 2.79998 15.0212C2.85426 15.1615 2.94942 15.2821 3.07312 15.3676C3.19682 15.453 3.34336 15.4994 3.49371 15.5005C3.64406 15.5016 3.79128 15.4576 3.91627 15.374L8.00002 12.6515L12.0838 15.374C12.2115 15.4588 12.3622 15.5025 12.5155 15.4991C12.6688 15.4958 12.8174 15.4455 12.9413 15.3552C13.0652 15.2649 13.1585 15.1387 13.2086 14.9938C13.2587 14.8489 13.2632 14.6921 13.2215 14.5445L11.8498 9.74451L15.2518 6.68301C15.4745 6.48201 15.5563 6.16851 15.4603 5.88426Z" fill="#EFF2F7"/>
</svg>
