<svg width="16" height="16" viewBox="0 0 16 16" fill="none" xmlns="http://www.w3.org/2000/svg">
<path d="M15.7623 3.29171C15.2057 3.53838 14.6077 3.70504 13.979 3.78038C14.6277 3.39224 15.113 2.78135 15.3443 2.06171C14.7349 2.4237 14.0679 2.67851 13.3723 2.81504C12.9046 2.31562 12.285 1.98459 11.6099 1.87336C10.9347 1.76212 10.2417 1.8769 9.63849 2.19988C9.03525 2.52285 8.55552 3.03595 8.27377 3.65951C7.99202 4.28307 7.92402 4.98221 8.08033 5.64838C6.84546 5.58637 5.63742 5.26541 4.53462 4.70631C3.43181 4.14722 2.45889 3.36248 1.679 2.40304C1.41233 2.86304 1.259 3.39638 1.259 3.96438C1.2587 4.47571 1.38462 4.9792 1.62559 5.4302C1.86655 5.88119 2.21511 6.26574 2.64033 6.54971C2.14718 6.53402 1.66492 6.40077 1.23367 6.16104V6.20104C1.23362 6.9182 1.48169 7.6133 1.93579 8.16837C2.38989 8.72345 3.02205 9.10433 3.725 9.24638C3.26752 9.37019 2.78789 9.38842 2.32233 9.29971C2.52067 9.91679 2.907 10.4564 3.42725 10.843C3.94749 11.2296 4.57561 11.4438 5.22367 11.4557C4.12356 12.3193 2.76493 12.7878 1.36633 12.7857C1.11859 12.7858 0.871051 12.7713 0.625 12.7424C2.04465 13.6552 3.69723 14.1396 5.385 14.1377C11.0983 14.1377 14.2217 9.40571 14.2217 5.30171C14.2217 5.16838 14.2183 5.03371 14.2123 4.90038C14.8199 4.46103 15.3443 3.91697 15.761 3.29371L15.7623 3.29171Z" fill="#1D72D2"/>
</svg>
