<svg width="34" height="34" viewBox="0 0 34 34" fill="none" xmlns="http://www.w3.org/2000/svg">
<path d="M17 12.7501C15.879 12.7498 14.7831 13.0819 13.8509 13.7046C12.9187 14.3272 12.1922 15.2123 11.7632 16.248C11.3341 17.2836 11.2219 18.4233 11.4407 19.5227C11.6595 20.6221 12.1994 21.632 12.9923 22.4245L16.2322 25.5922C16.4381 25.7908 16.7131 25.9018 16.9993 25.9018C17.2855 25.9018 17.5605 25.7908 17.7664 25.5922L21.0248 22.4132C21.8147 21.619 22.3516 20.6086 22.5676 19.5095C22.7836 18.4104 22.6691 17.272 22.2384 16.238C21.8077 15.204 21.0803 14.3208 20.1479 13.7C19.2155 13.0792 18.1201 12.7486 17 12.7501ZM17 19.8221C16.7198 19.8221 16.4459 19.739 16.2129 19.5833C15.98 19.4277 15.7984 19.2064 15.6912 18.9476C15.584 18.6887 15.5559 18.4038 15.6106 18.129C15.6652 17.8542 15.8001 17.6018 15.9983 17.4037C16.1964 17.2056 16.4488 17.0706 16.7236 17.016C16.9984 16.9613 17.2833 16.9894 17.5421 17.0966C17.801 17.2038 18.0223 17.3854 18.1779 17.6184C18.3336 17.8513 18.4167 18.1252 18.4167 18.4054C18.4167 18.7811 18.2674 19.1415 18.0017 19.4072C17.7361 19.6728 17.3757 19.8221 17 19.8221ZM30.8833 7.90367L20.9667 1.21133C19.7968 0.415728 18.4148 -0.00970459 17 -0.00970459C15.5852 -0.00970459 14.2032 0.415728 13.0333 1.21133L3.11667 7.90367C2.15638 8.55275 1.37005 9.42756 0.826661 10.4514C0.283267 11.4752 -0.000587093 12.6167 9.1168e-07 13.7758V26.9167C0.00225038 28.7947 0.74925 30.595 2.07715 31.9229C3.40504 33.2508 5.20541 33.9978 7.08333 34.0001H26.9167C28.7946 33.9978 30.595 33.2508 31.9229 31.9229C33.2508 30.595 33.9978 28.7947 34 26.9167V13.7758C34.0006 12.6167 33.7167 11.4752 33.1733 10.4514C32.63 9.42756 31.8436 8.55275 30.8833 7.90367ZM23.0109 24.4277L19.7483 27.6251C19.0112 28.3383 18.0257 28.737 17 28.737C15.9743 28.737 14.9888 28.3383 14.2517 27.6251L10.9933 24.4447C9.39783 22.852 8.50036 20.6907 8.49837 18.4363C8.49637 16.1819 9.39002 14.0191 10.9827 12.4235C12.5754 10.828 14.7367 9.93057 16.9911 9.92857C19.2455 9.92658 21.4083 10.8202 23.0038 12.4129C24.5942 14.0073 25.4879 16.1669 25.4893 18.4188C25.4906 20.6708 24.5994 22.8315 23.0109 24.4277Z" fill="#1D72D2"/>
</svg>
