<svg width="34" height="34" viewBox="0 0 34 34" fill="none" xmlns="http://www.w3.org/2000/svg">
<path d="M32.5833 15.5827C32.2075 15.5827 31.8472 15.4335 31.5815 15.1678C31.3159 14.9021 31.1666 14.5418 31.1666 14.1661C31.1636 11.1612 29.9686 8.28028 27.8438 6.15551C25.7191 4.03075 22.8381 2.83574 19.8333 2.83274C19.4575 2.83274 19.0972 2.68349 18.8315 2.41781C18.5659 2.15214 18.4166 1.7918 18.4166 1.41608C18.4166 1.04035 18.5659 0.680019 18.8315 0.414343C19.0972 0.148666 19.4575 -0.000589416 19.8333 -0.000589416C23.5892 0.00353535 27.1902 1.49742 29.8461 4.15329C32.5019 6.80916 33.9958 10.4101 33.9999 14.1661C33.9999 14.5418 33.8507 14.9021 33.585 15.1678C33.3193 15.4335 32.959 15.5827 32.5833 15.5827ZM28.3333 14.1661C28.3333 11.9117 27.4377 9.74973 25.8437 8.15567C24.2496 6.56161 22.0876 5.66608 19.8333 5.66608C19.4575 5.66608 19.0972 5.81533 18.8315 6.08101C18.5659 6.34669 18.4166 6.70702 18.4166 7.08274C18.4166 7.45847 18.5659 7.8188 18.8315 8.08448C19.0972 8.35016 19.4575 8.49941 19.8333 8.49941C21.3362 8.49941 22.7775 9.09643 23.8402 10.1591C24.9029 11.2218 25.4999 12.6632 25.4999 14.1661C25.4999 14.5418 25.6492 14.9021 25.9149 15.1678C26.1805 15.4335 26.5409 15.5827 26.9166 15.5827C27.2923 15.5827 27.6527 15.4335 27.9183 15.1678C28.184 14.9021 28.3333 14.5418 28.3333 14.1661ZM31.4259 31.3984L32.715 29.9123C33.5356 29.0891 33.9963 27.9743 33.9963 26.812C33.9963 25.6497 33.5356 24.5348 32.715 23.7116C32.6711 23.6677 29.2626 21.0454 29.2626 21.0454C28.4445 20.2667 27.3579 19.8331 26.2285 19.8347C25.0991 19.8363 24.0137 20.2729 23.1979 21.0539L20.4977 23.3291C18.2936 22.4169 16.2914 21.0782 14.6062 19.3901C12.9209 17.7019 11.5857 15.6974 10.6773 13.4917L12.944 10.8001C13.7256 9.98432 14.1628 8.89874 14.1646 7.76898C14.1665 6.63923 13.7329 5.55222 12.9539 4.73391C12.9539 4.73391 10.3288 1.32966 10.2849 1.28574C9.47666 0.472221 8.38076 0.00935844 7.23404 -0.00283514C6.08731 -0.0150287 4.98182 0.424425 4.15643 1.22058L2.52726 2.63724C-7.09757 13.8034 13.6283 34.3692 25.1628 33.9994C26.3275 34.0062 27.4818 33.7795 28.5575 33.3328C29.6332 32.886 30.6085 32.2283 31.4259 31.3984Z" fill="#1D72D2"/>
</svg>
