<svg width="60" height="46" viewBox="0 0 60 46" fill="none" xmlns="http://www.w3.org/2000/svg">
<path d="M50.7927 4.23018C46.9677 2.50518 42.8677 1.23018 38.5802 0.505178C38.542 0.497848 38.5025 0.502572 38.4671 0.518696C38.4317 0.534821 38.4023 0.561549 38.3827 0.595178C37.8577 1.51768 37.2727 2.72018 36.8627 3.67018C32.3155 2.99077 27.6925 2.99077 23.1452 3.67018C22.6886 2.61733 22.1736 1.59074 21.6027 0.595178C21.5834 0.561135 21.5541 0.533803 21.5188 0.516828C21.4835 0.499854 21.4439 0.494046 21.4052 0.500178C17.1202 1.22518 13.0202 2.50018 9.19273 4.22768C9.1598 4.24149 9.13188 4.26504 9.11273 4.29518C1.33273 15.7327 -0.799775 26.8877 0.247725 37.9027C0.25064 37.9297 0.259014 37.9558 0.272337 37.9794C0.285661 38.003 0.303655 38.0237 0.325225 38.0402C4.86621 41.3462 9.93107 43.8647 15.3077 45.4902C15.3452 45.5017 15.3853 45.5017 15.4228 45.4901C15.4602 45.4785 15.4933 45.4559 15.5177 45.4252C16.6747 43.8779 17.7 42.2363 18.5827 40.5177C18.595 40.4942 18.602 40.4683 18.6034 40.4419C18.6048 40.4154 18.6005 40.3889 18.5908 40.3643C18.5811 40.3396 18.5662 40.3174 18.5471 40.299C18.528 40.2806 18.5052 40.2665 18.4802 40.2577C16.8652 39.6495 15.3004 38.9156 13.8002 38.0627C13.7733 38.0473 13.7506 38.0254 13.7341 37.9991C13.7177 37.9728 13.708 37.9428 13.7061 37.9118C13.7041 37.8808 13.7098 37.8499 13.7228 37.8216C13.7357 37.7934 13.7555 37.7689 13.7802 37.7502C14.0952 37.5177 14.4102 37.2752 14.7102 37.0327C14.7372 37.0109 14.7698 36.997 14.8042 36.9926C14.8386 36.9882 14.8736 36.9934 14.9052 37.0077C24.7227 41.4177 35.3552 41.4177 45.0577 37.0077C45.0895 36.9925 45.1248 36.9866 45.1597 36.9906C45.1946 36.9946 45.2277 37.0083 45.2552 37.0302C45.5552 37.2752 45.8677 37.5177 46.1852 37.7502C46.2102 37.7685 46.2303 37.7927 46.2437 37.8207C46.257 37.8487 46.2632 37.8795 46.2618 37.9105C46.2603 37.9414 46.2511 37.9715 46.2352 37.9981C46.2192 38.0247 46.1969 38.0468 46.1702 38.0627C44.6752 38.9227 43.1202 39.6502 41.4877 40.2552C41.4627 40.2643 41.4398 40.2786 41.4207 40.2973C41.4016 40.3159 41.3868 40.3384 41.3771 40.3632C41.3674 40.3881 41.3631 40.4147 41.3645 40.4413C41.3659 40.468 41.373 40.494 41.3852 40.5177C42.2852 42.2352 43.3152 43.8702 44.4477 45.4227C44.4713 45.4545 44.5041 45.4784 44.5417 45.4909C44.5792 45.5034 44.6198 45.504 44.6577 45.4927C50.0436 43.8718 55.1167 41.3521 59.6627 38.0402C59.6849 38.0247 59.7035 38.0046 59.7173 37.9813C59.7311 37.958 59.7398 37.9321 59.7427 37.9052C60.9927 25.1702 57.6477 14.1052 50.8702 4.30018C50.8536 4.26831 50.8261 4.24348 50.7927 4.23018ZM20.0502 31.1952C17.0952 31.1952 14.6577 28.5227 14.6577 25.2452C14.6577 21.9652 17.0477 19.2952 20.0502 19.2952C23.0752 19.2952 25.4902 21.9877 25.4427 25.2452C25.4427 28.5252 23.0527 31.1952 20.0502 31.1952ZM39.9877 31.1952C37.0302 31.1952 34.5952 28.5227 34.5952 25.2452C34.5952 21.9652 36.9827 19.2952 39.9877 19.2952C43.0127 19.2952 45.4277 21.9877 45.3802 25.2452C45.3802 28.5252 43.0152 31.1952 39.9877 31.1952Z" fill="white"/>
</svg>
