<svg width="14" height="13" viewBox="0 0 14 13" fill="none" xmlns="http://www.w3.org/2000/svg">
<path d="M7.125 3.2959C5.375 3.2959 3.98047 4.71777 3.98047 6.44043C3.98047 8.19043 5.375 9.58496 7.125 9.58496C8.84766 9.58496 10.2695 8.19043 10.2695 6.44043C10.2695 4.71777 8.84766 3.2959 7.125 3.2959ZM7.125 8.49121C6.00391 8.49121 5.07422 7.58887 5.07422 6.44043C5.07422 5.31934 5.97656 4.41699 7.125 4.41699C8.24609 4.41699 9.14844 5.31934 9.14844 6.44043C9.14844 7.58887 8.24609 8.49121 7.125 8.49121ZM11.1172 3.18652C11.1172 2.77637 10.7891 2.44824 10.3789 2.44824C9.96875 2.44824 9.64062 2.77637 9.64062 3.18652C9.64062 3.59668 9.96875 3.9248 10.3789 3.9248C10.7891 3.9248 11.1172 3.59668 11.1172 3.18652ZM13.1953 3.9248C13.1406 2.94043 12.9219 2.06543 12.2109 1.35449C11.5 0.643555 10.625 0.424805 9.64062 0.370117C8.62891 0.31543 5.59375 0.31543 4.58203 0.370117C3.59766 0.424805 2.75 0.643555 2.01172 1.35449C1.30078 2.06543 1.08203 2.94043 1.02734 3.9248C0.972656 4.93652 0.972656 7.97168 1.02734 8.9834C1.08203 9.96777 1.30078 10.8154 2.01172 11.5537C2.75 12.2646 3.59766 12.4834 4.58203 12.5381C5.59375 12.5928 8.62891 12.5928 9.64062 12.5381C10.625 12.4834 11.5 12.2646 12.2109 11.5537C12.9219 10.8154 13.1406 9.96777 13.1953 8.9834C13.25 7.97168 13.25 4.93652 13.1953 3.9248ZM11.8828 10.0498C11.6914 10.5967 11.2539 11.0068 10.7344 11.2256C9.91406 11.5537 8 11.4717 7.125 11.4717C6.22266 11.4717 4.30859 11.5537 3.51562 11.2256C2.96875 11.0068 2.55859 10.5967 2.33984 10.0498C2.01172 9.25684 2.09375 7.34277 2.09375 6.44043C2.09375 5.56543 2.01172 3.65137 2.33984 2.83105C2.55859 2.31152 2.96875 1.90137 3.51562 1.68262C4.30859 1.35449 6.22266 1.43652 7.125 1.43652C8 1.43652 9.91406 1.35449 10.7344 1.68262C11.2539 1.87402 11.6641 2.31152 11.8828 2.83105C12.2109 3.65137 12.1289 5.56543 12.1289 6.44043C12.1289 7.34277 12.2109 9.25684 11.8828 10.0498Z" fill="#1D72D2"/>
</svg>
