<svg width="1920" height="112" viewBox="0 0 1920 112" fill="none" xmlns="http://www.w3.org/2000/svg">
<path d="M0 78.5C0 77.1193 1.11929 76 2.5 76H22.5C23.8807 76 25 77.1193 25 78.5C25 79.8807 23.8807 81 22.5 81H2.5C1.11929 81 0 79.8807 0 78.5Z" fill="#E8EDF4"/>
<path d="M31 78.5C31 77.1193 32.1193 76 33.5 76H53.5C54.8807 76 56 77.1193 56 78.5C56 79.8807 54.8807 81 53.5 81H33.5C32.1193 81 31 79.8807 31 78.5Z" fill="#E8EDF4"/>
<path d="M93 78.5C93 77.1193 94.1193 76 95.5 76H115.5C116.881 76 118 77.1193 118 78.5C118 79.8807 116.881 81 115.5 81H95.5C94.1193 81 93 79.8807 93 78.5Z" fill="#E8EDF4"/>
<path d="M31 32.5C31 31.1193 32.1193 30 33.5 30H53.5C54.8807 30 56 31.1193 56 32.5C56 33.8807 54.8807 35 53.5 35H33.5C32.1193 35 31 33.8807 31 32.5Z" fill="#E8EDF4"/>
<path d="M93 32.5C93 31.1193 94.1193 30 95.5 30H115.5C116.881 30 118 31.1193 118 32.5C118 33.8807 116.881 35 115.5 35H95.5C94.1193 35 93 33.8807 93 32.5Z" fill="#E8EDF4"/>
<path d="M93 2.5C93 1.11929 94.1193 0 95.5 0H115.5C116.881 0 118 1.11929 118 2.5C118 3.88071 116.881 5 115.5 5H95.5C94.1193 5 93 3.88071 93 2.5Z" fill="#E8EDF4"/>
<path d="M62 78.5C62 77.1193 63.1193 76 64.5 76H84.5C85.8807 76 87 77.1193 87 78.5C87 79.8807 85.8807 81 84.5 81H64.5C63.1193 81 62 79.8807 62 78.5Z" fill="#E8EDF4"/>
<path d="M0 93.5C0 92.1193 1.11929 91 2.5 91H22.5C23.8807 91 25 92.1193 25 93.5C25 94.8807 23.8807 96 22.5 96H2.5C1.11929 96 0 94.8807 0 93.5Z" fill="#E8EDF4"/>
<path d="M31 93.5C31 92.1193 32.1193 91 33.5 91H53.5C54.8807 91 56 92.1193 56 93.5C56 94.8807 54.8807 96 53.5 96H33.5C32.1193 96 31 94.8807 31 93.5Z" fill="#E8EDF4"/>
<path d="M93 93.5C93 92.1193 94.1193 91 95.5 91H115.5C116.881 91 118 92.1193 118 93.5C118 94.8807 116.881 96 115.5 96H95.5C94.1193 96 93 94.8807 93 93.5Z" fill="#E8EDF4"/>
<path d="M31 47.5C31 46.1193 32.1193 45 33.5 45H53.5C54.8807 45 56 46.1193 56 47.5C56 48.8807 54.8807 50 53.5 50H33.5C32.1193 50 31 48.8807 31 47.5Z" fill="#E8EDF4"/>
<path d="M93 47.5C93 46.1193 94.1193 45 95.5 45H115.5C116.881 45 118 46.1193 118 47.5C118 48.8807 116.881 50 115.5 50H95.5C94.1193 50 93 48.8807 93 47.5Z" fill="#E8EDF4"/>
<path d="M93 17.5C93 16.1193 94.1193 15 95.5 15H115.5C116.881 15 118 16.1193 118 17.5C118 18.8807 116.881 20 115.5 20H95.5C94.1193 20 93 18.8807 93 17.5Z" fill="#E8EDF4"/>
<path d="M62 93.5C62 92.1193 63.1193 91 64.5 91H84.5C85.8807 91 87 92.1193 87 93.5C87 94.8807 85.8807 96 84.5 96H64.5C63.1193 96 62 94.8807 62 93.5Z" fill="#E8EDF4"/>
<path d="M62 47.5C62 46.1193 63.1193 45 64.5 45H84.5C85.8807 45 87 46.1193 87 47.5C87 48.8807 85.8807 50 84.5 50H64.5C63.1193 50 62 48.8807 62 47.5Z" fill="#E8EDF4"/>
<path d="M0 109.5C0 108.119 1.11929 107 2.5 107H22.5C23.8807 107 25 108.119 25 109.5C25 110.881 23.8807 112 22.5 112H2.5C1.11929 112 0 110.881 0 109.5Z" fill="#E8EDF4"/>
<path d="M31 109.5C31 108.119 32.1193 107 33.5 107H53.5C54.8807 107 56 108.119 56 109.5C56 110.881 54.8807 112 53.5 112H33.5C32.1193 112 31 110.881 31 109.5Z" fill="#E8EDF4"/>
<path d="M93 109.5C93 108.119 94.1193 107 95.5 107H115.5C116.881 107 118 108.119 118 109.5C118 110.881 116.881 112 115.5 112H95.5C94.1193 112 93 110.881 93 109.5Z" fill="#E8EDF4"/>
<path d="M31 63.5C31 62.1193 32.1193 61 33.5 61H53.5C54.8807 61 56 62.1193 56 63.5C56 64.8807 54.8807 66 53.5 66H33.5C32.1193 66 31 64.8807 31 63.5Z" fill="#E8EDF4"/>
<path d="M93 63.5C93 62.1193 94.1193 61 95.5 61H115.5C116.881 61 118 62.1193 118 63.5C118 64.8807 116.881 66 115.5 66H95.5C94.1193 66 93 64.8807 93 63.5Z" fill="#E8EDF4"/>
<path d="M62 109.5C62 108.119 63.1193 107 64.5 107H84.5C85.8807 107 87 108.119 87 109.5C87 110.881 85.8807 112 84.5 112H64.5C63.1193 112 62 110.881 62 109.5Z" fill="#E8EDF4"/>
<path d="M62 63.5C62 62.1193 63.1193 61 64.5 61H84.5C85.8807 61 87 62.1193 87 63.5C87 64.8807 85.8807 66 84.5 66H64.5C63.1193 66 62 64.8807 62 63.5Z" fill="#E8EDF4"/>
<path d="M124 78.5C124 77.1193 125.119 76 126.5 76H146.5C147.881 76 149 77.1193 149 78.5C149 79.8807 147.881 81 146.5 81H126.5C125.119 81 124 79.8807 124 78.5Z" fill="#E8EDF4"/>
<path d="M155 78.5C155 77.1193 156.119 76 157.5 76H177.5C178.881 76 180 77.1193 180 78.5C180 79.8807 178.881 81 177.5 81H157.5C156.119 81 155 79.8807 155 78.5Z" fill="#E8EDF4"/>
<path d="M217 78.5C217 77.1193 218.119 76 219.5 76H239.5C240.881 76 242 77.1193 242 78.5C242 79.8807 240.881 81 239.5 81H219.5C218.119 81 217 79.8807 217 78.5Z" fill="#E8EDF4"/>
<path d="M155 32.5C155 31.1193 156.119 30 157.5 30H177.5C178.881 30 180 31.1193 180 32.5C180 33.8807 178.881 35 177.5 35H157.5C156.119 35 155 33.8807 155 32.5Z" fill="#E8EDF4"/>
<path d="M217 32.5C217 31.1193 218.119 30 219.5 30H239.5C240.881 30 242 31.1193 242 32.5C242 33.8807 240.881 35 239.5 35H219.5C218.119 35 217 33.8807 217 32.5Z" fill="#E8EDF4"/>
<path d="M217 2.5C217 1.11929 218.119 0 219.5 0H239.5C240.881 0 242 1.11929 242 2.5C242 3.88071 240.881 5 239.5 5H219.5C218.119 5 217 3.88071 217 2.5Z" fill="#E8EDF4"/>
<path d="M186 78.5C186 77.1193 187.119 76 188.5 76H208.5C209.881 76 211 77.1193 211 78.5C211 79.8807 209.881 81 208.5 81H188.5C187.119 81 186 79.8807 186 78.5Z" fill="#E8EDF4"/>
<path d="M124 93.5C124 92.1193 125.119 91 126.5 91H146.5C147.881 91 149 92.1193 149 93.5C149 94.8807 147.881 96 146.5 96H126.5C125.119 96 124 94.8807 124 93.5Z" fill="#E8EDF4"/>
<path d="M155 93.5C155 92.1193 156.119 91 157.5 91H177.5C178.881 91 180 92.1193 180 93.5C180 94.8807 178.881 96 177.5 96H157.5C156.119 96 155 94.8807 155 93.5Z" fill="#E8EDF4"/>
<path d="M217 93.5C217 92.1193 218.119 91 219.5 91H239.5C240.881 91 242 92.1193 242 93.5C242 94.8807 240.881 96 239.5 96H219.5C218.119 96 217 94.8807 217 93.5Z" fill="#E8EDF4"/>
<path d="M155 47.5C155 46.1193 156.119 45 157.5 45H177.5C178.881 45 180 46.1193 180 47.5C180 48.8807 178.881 50 177.5 50H157.5C156.119 50 155 48.8807 155 47.5Z" fill="#E8EDF4"/>
<path d="M217 47.5C217 46.1193 218.119 45 219.5 45H239.5C240.881 45 242 46.1193 242 47.5C242 48.8807 240.881 50 239.5 50H219.5C218.119 50 217 48.8807 217 47.5Z" fill="#E8EDF4"/>
<path d="M217 17.5C217 16.1193 218.119 15 219.5 15H239.5C240.881 15 242 16.1193 242 17.5C242 18.8807 240.881 20 239.5 20H219.5C218.119 20 217 18.8807 217 17.5Z" fill="#E8EDF4"/>
<path d="M186 93.5C186 92.1193 187.119 91 188.5 91H208.5C209.881 91 211 92.1193 211 93.5C211 94.8807 209.881 96 208.5 96H188.5C187.119 96 186 94.8807 186 93.5Z" fill="#E8EDF4"/>
<path d="M186 47.5C186 46.1193 187.119 45 188.5 45H208.5C209.881 45 211 46.1193 211 47.5C211 48.8807 209.881 50 208.5 50H188.5C187.119 50 186 48.8807 186 47.5Z" fill="#E8EDF4"/>
<path d="M124 109.5C124 108.119 125.119 107 126.5 107H146.5C147.881 107 149 108.119 149 109.5C149 110.881 147.881 112 146.5 112H126.5C125.119 112 124 110.881 124 109.5Z" fill="#E8EDF4"/>
<path d="M155 109.5C155 108.119 156.119 107 157.5 107H177.5C178.881 107 180 108.119 180 109.5C180 110.881 178.881 112 177.5 112H157.5C156.119 112 155 110.881 155 109.5Z" fill="#E8EDF4"/>
<path d="M217 109.5C217 108.119 218.119 107 219.5 107H239.5C240.881 107 242 108.119 242 109.5C242 110.881 240.881 112 239.5 112H219.5C218.119 112 217 110.881 217 109.5Z" fill="#E8EDF4"/>
<path d="M155 63.5C155 62.1193 156.119 61 157.5 61H177.5C178.881 61 180 62.1193 180 63.5C180 64.8807 178.881 66 177.5 66H157.5C156.119 66 155 64.8807 155 63.5Z" fill="#E8EDF4"/>
<path d="M217 63.5C217 62.1193 218.119 61 219.5 61H239.5C240.881 61 242 62.1193 242 63.5C242 64.8807 240.881 66 239.5 66H219.5C218.119 66 217 64.8807 217 63.5Z" fill="#E8EDF4"/>
<path d="M186 109.5C186 108.119 187.119 107 188.5 107H208.5C209.881 107 211 108.119 211 109.5C211 110.881 209.881 112 208.5 112H188.5C187.119 112 186 110.881 186 109.5Z" fill="#E8EDF4"/>
<path d="M186 63.5C186 62.1193 187.119 61 188.5 61H208.5C209.881 61 211 62.1193 211 63.5C211 64.8807 209.881 66 208.5 66H188.5C187.119 66 186 64.8807 186 63.5Z" fill="#E8EDF4"/>
<path d="M248 78.5C248 77.1193 249.119 76 250.5 76H270.5C271.881 76 273 77.1193 273 78.5C273 79.8807 271.881 81 270.5 81H250.5C249.119 81 248 79.8807 248 78.5Z" fill="#E8EDF4"/>
<path d="M279 78.5C279 77.1193 280.119 76 281.5 76H301.5C302.881 76 304 77.1193 304 78.5C304 79.8807 302.881 81 301.5 81H281.5C280.119 81 279 79.8807 279 78.5Z" fill="#E8EDF4"/>
<path d="M341 78.5C341 77.1193 342.119 76 343.5 76H363.5C364.881 76 366 77.1193 366 78.5C366 79.8807 364.881 81 363.5 81H343.5C342.119 81 341 79.8807 341 78.5Z" fill="#E8EDF4"/>
<path d="M279 32.5C279 31.1193 280.119 30 281.5 30H301.5C302.881 30 304 31.1193 304 32.5C304 33.8807 302.881 35 301.5 35H281.5C280.119 35 279 33.8807 279 32.5Z" fill="#E8EDF4"/>
<path d="M341 32.5C341 31.1193 342.119 30 343.5 30H363.5C364.881 30 366 31.1193 366 32.5C366 33.8807 364.881 35 363.5 35H343.5C342.119 35 341 33.8807 341 32.5Z" fill="#E8EDF4"/>
<path d="M341 2.5C341 1.11929 342.119 0 343.5 0H363.5C364.881 0 366 1.11929 366 2.5C366 3.88071 364.881 5 363.5 5H343.5C342.119 5 341 3.88071 341 2.5Z" fill="#E8EDF4"/>
<path d="M310 78.5C310 77.1193 311.119 76 312.5 76H332.5C333.881 76 335 77.1193 335 78.5C335 79.8807 333.881 81 332.5 81H312.5C311.119 81 310 79.8807 310 78.5Z" fill="#E8EDF4"/>
<path d="M248 93.5C248 92.1193 249.119 91 250.5 91H270.5C271.881 91 273 92.1193 273 93.5C273 94.8807 271.881 96 270.5 96H250.5C249.119 96 248 94.8807 248 93.5Z" fill="#E8EDF4"/>
<path d="M279 93.5C279 92.1193 280.119 91 281.5 91H301.5C302.881 91 304 92.1193 304 93.5C304 94.8807 302.881 96 301.5 96H281.5C280.119 96 279 94.8807 279 93.5Z" fill="#E8EDF4"/>
<path d="M341 93.5C341 92.1193 342.119 91 343.5 91H363.5C364.881 91 366 92.1193 366 93.5C366 94.8807 364.881 96 363.5 96H343.5C342.119 96 341 94.8807 341 93.5Z" fill="#E8EDF4"/>
<path d="M279 47.5C279 46.1193 280.119 45 281.5 45H301.5C302.881 45 304 46.1193 304 47.5C304 48.8807 302.881 50 301.5 50H281.5C280.119 50 279 48.8807 279 47.5Z" fill="#E8EDF4"/>
<path d="M341 47.5C341 46.1193 342.119 45 343.5 45H363.5C364.881 45 366 46.1193 366 47.5C366 48.8807 364.881 50 363.5 50H343.5C342.119 50 341 48.8807 341 47.5Z" fill="#E8EDF4"/>
<path d="M341 17.5C341 16.1193 342.119 15 343.5 15H363.5C364.881 15 366 16.1193 366 17.5C366 18.8807 364.881 20 363.5 20H343.5C342.119 20 341 18.8807 341 17.5Z" fill="#E8EDF4"/>
<path d="M310 93.5C310 92.1193 311.119 91 312.5 91H332.5C333.881 91 335 92.1193 335 93.5C335 94.8807 333.881 96 332.5 96H312.5C311.119 96 310 94.8807 310 93.5Z" fill="#E8EDF4"/>
<path d="M310 47.5C310 46.1193 311.119 45 312.5 45H332.5C333.881 45 335 46.1193 335 47.5C335 48.8807 333.881 50 332.5 50H312.5C311.119 50 310 48.8807 310 47.5Z" fill="#E8EDF4"/>
<path d="M248 109.5C248 108.119 249.119 107 250.5 107H270.5C271.881 107 273 108.119 273 109.5C273 110.881 271.881 112 270.5 112H250.5C249.119 112 248 110.881 248 109.5Z" fill="#E8EDF4"/>
<path d="M279 109.5C279 108.119 280.119 107 281.5 107H301.5C302.881 107 304 108.119 304 109.5C304 110.881 302.881 112 301.5 112H281.5C280.119 112 279 110.881 279 109.5Z" fill="#E8EDF4"/>
<path d="M341 109.5C341 108.119 342.119 107 343.5 107H363.5C364.881 107 366 108.119 366 109.5C366 110.881 364.881 112 363.5 112H343.5C342.119 112 341 110.881 341 109.5Z" fill="#E8EDF4"/>
<path d="M279 63.5C279 62.1193 280.119 61 281.5 61H301.5C302.881 61 304 62.1193 304 63.5C304 64.8807 302.881 66 301.5 66H281.5C280.119 66 279 64.8807 279 63.5Z" fill="#E8EDF4"/>
<path d="M341 63.5C341 62.1193 342.119 61 343.5 61H363.5C364.881 61 366 62.1193 366 63.5C366 64.8807 364.881 66 363.5 66H343.5C342.119 66 341 64.8807 341 63.5Z" fill="#E8EDF4"/>
<path d="M310 109.5C310 108.119 311.119 107 312.5 107H332.5C333.881 107 335 108.119 335 109.5C335 110.881 333.881 112 332.5 112H312.5C311.119 112 310 110.881 310 109.5Z" fill="#E8EDF4"/>
<path d="M310 63.5C310 62.1193 311.119 61 312.5 61H332.5C333.881 61 335 62.1193 335 63.5C335 64.8807 333.881 66 332.5 66H312.5C311.119 66 310 64.8807 310 63.5Z" fill="#E8EDF4"/>
<path d="M372 78.5C372 77.1193 373.119 76 374.5 76H394.5C395.881 76 397 77.1193 397 78.5C397 79.8807 395.881 81 394.5 81H374.5C373.119 81 372 79.8807 372 78.5Z" fill="#E8EDF4"/>
<path d="M403 78.5C403 77.1193 404.119 76 405.5 76H425.5C426.881 76 428 77.1193 428 78.5C428 79.8807 426.881 81 425.5 81H405.5C404.119 81 403 79.8807 403 78.5Z" fill="#E8EDF4"/>
<path d="M465 78.5C465 77.1193 466.119 76 467.5 76H487.5C488.881 76 490 77.1193 490 78.5C490 79.8807 488.881 81 487.5 81H467.5C466.119 81 465 79.8807 465 78.5Z" fill="#E8EDF4"/>
<path d="M403 32.5C403 31.1193 404.119 30 405.5 30H425.5C426.881 30 428 31.1193 428 32.5C428 33.8807 426.881 35 425.5 35H405.5C404.119 35 403 33.8807 403 32.5Z" fill="#E8EDF4"/>
<path d="M465 32.5C465 31.1193 466.119 30 467.5 30H487.5C488.881 30 490 31.1193 490 32.5C490 33.8807 488.881 35 487.5 35H467.5C466.119 35 465 33.8807 465 32.5Z" fill="#E8EDF4"/>
<path d="M465 2.5C465 1.11929 466.119 0 467.5 0H487.5C488.881 0 490 1.11929 490 2.5C490 3.88071 488.881 5 487.5 5H467.5C466.119 5 465 3.88071 465 2.5Z" fill="#E8EDF4"/>
<path d="M434 78.5C434 77.1193 435.119 76 436.5 76H456.5C457.881 76 459 77.1193 459 78.5C459 79.8807 457.881 81 456.5 81H436.5C435.119 81 434 79.8807 434 78.5Z" fill="#E8EDF4"/>
<path d="M372 93.5C372 92.1193 373.119 91 374.5 91H394.5C395.881 91 397 92.1193 397 93.5C397 94.8807 395.881 96 394.5 96H374.5C373.119 96 372 94.8807 372 93.5Z" fill="#E8EDF4"/>
<path d="M403 93.5C403 92.1193 404.119 91 405.5 91H425.5C426.881 91 428 92.1193 428 93.5C428 94.8807 426.881 96 425.5 96H405.5C404.119 96 403 94.8807 403 93.5Z" fill="#E8EDF4"/>
<path d="M465 93.5C465 92.1193 466.119 91 467.5 91H487.5C488.881 91 490 92.1193 490 93.5C490 94.8807 488.881 96 487.5 96H467.5C466.119 96 465 94.8807 465 93.5Z" fill="#E8EDF4"/>
<path d="M403 47.5C403 46.1193 404.119 45 405.5 45H425.5C426.881 45 428 46.1193 428 47.5C428 48.8807 426.881 50 425.5 50H405.5C404.119 50 403 48.8807 403 47.5Z" fill="#E8EDF4"/>
<path d="M465 47.5C465 46.1193 466.119 45 467.5 45H487.5C488.881 45 490 46.1193 490 47.5C490 48.8807 488.881 50 487.5 50H467.5C466.119 50 465 48.8807 465 47.5Z" fill="#E8EDF4"/>
<path d="M465 17.5C465 16.1193 466.119 15 467.5 15H487.5C488.881 15 490 16.1193 490 17.5C490 18.8807 488.881 20 487.5 20H467.5C466.119 20 465 18.8807 465 17.5Z" fill="#E8EDF4"/>
<path d="M434 93.5C434 92.1193 435.119 91 436.5 91H456.5C457.881 91 459 92.1193 459 93.5C459 94.8807 457.881 96 456.5 96H436.5C435.119 96 434 94.8807 434 93.5Z" fill="#E8EDF4"/>
<path d="M434 47.5C434 46.1193 435.119 45 436.5 45H456.5C457.881 45 459 46.1193 459 47.5C459 48.8807 457.881 50 456.5 50H436.5C435.119 50 434 48.8807 434 47.5Z" fill="#E8EDF4"/>
<path d="M372 109.5C372 108.119 373.119 107 374.5 107H394.5C395.881 107 397 108.119 397 109.5C397 110.881 395.881 112 394.5 112H374.5C373.119 112 372 110.881 372 109.5Z" fill="#E8EDF4"/>
<path d="M403 109.5C403 108.119 404.119 107 405.5 107H425.5C426.881 107 428 108.119 428 109.5C428 110.881 426.881 112 425.5 112H405.5C404.119 112 403 110.881 403 109.5Z" fill="#E8EDF4"/>
<path d="M465 109.5C465 108.119 466.119 107 467.5 107H487.5C488.881 107 490 108.119 490 109.5C490 110.881 488.881 112 487.5 112H467.5C466.119 112 465 110.881 465 109.5Z" fill="#E8EDF4"/>
<path d="M403 63.5C403 62.1193 404.119 61 405.5 61H425.5C426.881 61 428 62.1193 428 63.5C428 64.8807 426.881 66 425.5 66H405.5C404.119 66 403 64.8807 403 63.5Z" fill="#E8EDF4"/>
<path d="M465 63.5C465 62.1193 466.119 61 467.5 61H487.5C488.881 61 490 62.1193 490 63.5C490 64.8807 488.881 66 487.5 66H467.5C466.119 66 465 64.8807 465 63.5Z" fill="#E8EDF4"/>
<path d="M434 109.5C434 108.119 435.119 107 436.5 107H456.5C457.881 107 459 108.119 459 109.5C459 110.881 457.881 112 456.5 112H436.5C435.119 112 434 110.881 434 109.5Z" fill="#E8EDF4"/>
<path d="M434 63.5C434 62.1193 435.119 61 436.5 61H456.5C457.881 61 459 62.1193 459 63.5C459 64.8807 457.881 66 456.5 66H436.5C435.119 66 434 64.8807 434 63.5Z" fill="#E8EDF4"/>
<path d="M496 78.5C496 77.1193 497.119 76 498.5 76H518.5C519.881 76 521 77.1193 521 78.5C521 79.8807 519.881 81 518.5 81H498.5C497.119 81 496 79.8807 496 78.5Z" fill="#E8EDF4"/>
<path d="M527 78.5C527 77.1193 528.119 76 529.5 76H549.5C550.881 76 552 77.1193 552 78.5C552 79.8807 550.881 81 549.5 81H529.5C528.119 81 527 79.8807 527 78.5Z" fill="#E8EDF4"/>
<path d="M589 78.5C589 77.1193 590.119 76 591.5 76H611.5C612.881 76 614 77.1193 614 78.5C614 79.8807 612.881 81 611.5 81H591.5C590.119 81 589 79.8807 589 78.5Z" fill="#E8EDF4"/>
<path d="M527 32.5C527 31.1193 528.119 30 529.5 30H549.5C550.881 30 552 31.1193 552 32.5C552 33.8807 550.881 35 549.5 35H529.5C528.119 35 527 33.8807 527 32.5Z" fill="#E8EDF4"/>
<path d="M589 32.5C589 31.1193 590.119 30 591.5 30H611.5C612.881 30 614 31.1193 614 32.5C614 33.8807 612.881 35 611.5 35H591.5C590.119 35 589 33.8807 589 32.5Z" fill="#E8EDF4"/>
<path d="M589 2.5C589 1.11929 590.119 0 591.5 0H611.5C612.881 0 614 1.11929 614 2.5C614 3.88071 612.881 5 611.5 5H591.5C590.119 5 589 3.88071 589 2.5Z" fill="#E8EDF4"/>
<path d="M558 78.5C558 77.1193 559.119 76 560.5 76H580.5C581.881 76 583 77.1193 583 78.5C583 79.8807 581.881 81 580.5 81H560.5C559.119 81 558 79.8807 558 78.5Z" fill="#E8EDF4"/>
<path d="M496 93.5C496 92.1193 497.119 91 498.5 91H518.5C519.881 91 521 92.1193 521 93.5C521 94.8807 519.881 96 518.5 96H498.5C497.119 96 496 94.8807 496 93.5Z" fill="#E8EDF4"/>
<path d="M527 93.5C527 92.1193 528.119 91 529.5 91H549.5C550.881 91 552 92.1193 552 93.5C552 94.8807 550.881 96 549.5 96H529.5C528.119 96 527 94.8807 527 93.5Z" fill="#E8EDF4"/>
<path d="M589 93.5C589 92.1193 590.119 91 591.5 91H611.5C612.881 91 614 92.1193 614 93.5C614 94.8807 612.881 96 611.5 96H591.5C590.119 96 589 94.8807 589 93.5Z" fill="#E8EDF4"/>
<path d="M527 47.5C527 46.1193 528.119 45 529.5 45H549.5C550.881 45 552 46.1193 552 47.5C552 48.8807 550.881 50 549.5 50H529.5C528.119 50 527 48.8807 527 47.5Z" fill="#E8EDF4"/>
<path d="M589 47.5C589 46.1193 590.119 45 591.5 45H611.5C612.881 45 614 46.1193 614 47.5C614 48.8807 612.881 50 611.5 50H591.5C590.119 50 589 48.8807 589 47.5Z" fill="#E8EDF4"/>
<path d="M589 17.5C589 16.1193 590.119 15 591.5 15H611.5C612.881 15 614 16.1193 614 17.5C614 18.8807 612.881 20 611.5 20H591.5C590.119 20 589 18.8807 589 17.5Z" fill="#E8EDF4"/>
<path d="M558 93.5C558 92.1193 559.119 91 560.5 91H580.5C581.881 91 583 92.1193 583 93.5C583 94.8807 581.881 96 580.5 96H560.5C559.119 96 558 94.8807 558 93.5Z" fill="#E8EDF4"/>
<path d="M558 47.5C558 46.1193 559.119 45 560.5 45H580.5C581.881 45 583 46.1193 583 47.5C583 48.8807 581.881 50 580.5 50H560.5C559.119 50 558 48.8807 558 47.5Z" fill="#E8EDF4"/>
<path d="M496 109.5C496 108.119 497.119 107 498.5 107H518.5C519.881 107 521 108.119 521 109.5C521 110.881 519.881 112 518.5 112H498.5C497.119 112 496 110.881 496 109.5Z" fill="#E8EDF4"/>
<path d="M527 109.5C527 108.119 528.119 107 529.5 107H549.5C550.881 107 552 108.119 552 109.5C552 110.881 550.881 112 549.5 112H529.5C528.119 112 527 110.881 527 109.5Z" fill="#E8EDF4"/>
<path d="M589 109.5C589 108.119 590.119 107 591.5 107H611.5C612.881 107 614 108.119 614 109.5C614 110.881 612.881 112 611.5 112H591.5C590.119 112 589 110.881 589 109.5Z" fill="#E8EDF4"/>
<path d="M527 63.5C527 62.1193 528.119 61 529.5 61H549.5C550.881 61 552 62.1193 552 63.5C552 64.8807 550.881 66 549.5 66H529.5C528.119 66 527 64.8807 527 63.5Z" fill="#E8EDF4"/>
<path d="M589 63.5C589 62.1193 590.119 61 591.5 61H611.5C612.881 61 614 62.1193 614 63.5C614 64.8807 612.881 66 611.5 66H591.5C590.119 66 589 64.8807 589 63.5Z" fill="#E8EDF4"/>
<path d="M558 109.5C558 108.119 559.119 107 560.5 107H580.5C581.881 107 583 108.119 583 109.5C583 110.881 581.881 112 580.5 112H560.5C559.119 112 558 110.881 558 109.5Z" fill="#E8EDF4"/>
<path d="M558 63.5C558 62.1193 559.119 61 560.5 61H580.5C581.881 61 583 62.1193 583 63.5C583 64.8807 581.881 66 580.5 66H560.5C559.119 66 558 64.8807 558 63.5Z" fill="#E8EDF4"/>
<path d="M620 78.5C620 77.1193 621.119 76 622.5 76H642.5C643.881 76 645 77.1193 645 78.5C645 79.8807 643.881 81 642.5 81H622.5C621.119 81 620 79.8807 620 78.5Z" fill="#E8EDF4"/>
<path d="M651 78.5C651 77.1193 652.119 76 653.5 76H673.5C674.881 76 676 77.1193 676 78.5C676 79.8807 674.881 81 673.5 81H653.5C652.119 81 651 79.8807 651 78.5Z" fill="#E8EDF4"/>
<path d="M713 78.5C713 77.1193 714.119 76 715.5 76H735.5C736.881 76 738 77.1193 738 78.5C738 79.8807 736.881 81 735.5 81H715.5C714.119 81 713 79.8807 713 78.5Z" fill="#E8EDF4"/>
<path d="M651 32.5C651 31.1193 652.119 30 653.5 30H673.5C674.881 30 676 31.1193 676 32.5C676 33.8807 674.881 35 673.5 35H653.5C652.119 35 651 33.8807 651 32.5Z" fill="#E8EDF4"/>
<path d="M713 32.5C713 31.1193 714.119 30 715.5 30H735.5C736.881 30 738 31.1193 738 32.5C738 33.8807 736.881 35 735.5 35H715.5C714.119 35 713 33.8807 713 32.5Z" fill="#E8EDF4"/>
<path d="M713 2.5C713 1.11929 714.119 0 715.5 0H735.5C736.881 0 738 1.11929 738 2.5C738 3.88071 736.881 5 735.5 5H715.5C714.119 5 713 3.88071 713 2.5Z" fill="#E8EDF4"/>
<path d="M682 78.5C682 77.1193 683.119 76 684.5 76H704.5C705.881 76 707 77.1193 707 78.5C707 79.8807 705.881 81 704.5 81H684.5C683.119 81 682 79.8807 682 78.5Z" fill="#E8EDF4"/>
<path d="M620 93.5C620 92.1193 621.119 91 622.5 91H642.5C643.881 91 645 92.1193 645 93.5C645 94.8807 643.881 96 642.5 96H622.5C621.119 96 620 94.8807 620 93.5Z" fill="#E8EDF4"/>
<path d="M651 93.5C651 92.1193 652.119 91 653.5 91H673.5C674.881 91 676 92.1193 676 93.5C676 94.8807 674.881 96 673.5 96H653.5C652.119 96 651 94.8807 651 93.5Z" fill="#E8EDF4"/>
<path d="M713 93.5C713 92.1193 714.119 91 715.5 91H735.5C736.881 91 738 92.1193 738 93.5C738 94.8807 736.881 96 735.5 96H715.5C714.119 96 713 94.8807 713 93.5Z" fill="#E8EDF4"/>
<path d="M651 47.5C651 46.1193 652.119 45 653.5 45H673.5C674.881 45 676 46.1193 676 47.5C676 48.8807 674.881 50 673.5 50H653.5C652.119 50 651 48.8807 651 47.5Z" fill="#E8EDF4"/>
<path d="M713 47.5C713 46.1193 714.119 45 715.5 45H735.5C736.881 45 738 46.1193 738 47.5C738 48.8807 736.881 50 735.5 50H715.5C714.119 50 713 48.8807 713 47.5Z" fill="#E8EDF4"/>
<path d="M713 17.5C713 16.1193 714.119 15 715.5 15H735.5C736.881 15 738 16.1193 738 17.5C738 18.8807 736.881 20 735.5 20H715.5C714.119 20 713 18.8807 713 17.5Z" fill="#E8EDF4"/>
<path d="M682 93.5C682 92.1193 683.119 91 684.5 91H704.5C705.881 91 707 92.1193 707 93.5C707 94.8807 705.881 96 704.5 96H684.5C683.119 96 682 94.8807 682 93.5Z" fill="#E8EDF4"/>
<path d="M682 47.5C682 46.1193 683.119 45 684.5 45H704.5C705.881 45 707 46.1193 707 47.5C707 48.8807 705.881 50 704.5 50H684.5C683.119 50 682 48.8807 682 47.5Z" fill="#E8EDF4"/>
<path d="M620 109.5C620 108.119 621.119 107 622.5 107H642.5C643.881 107 645 108.119 645 109.5C645 110.881 643.881 112 642.5 112H622.5C621.119 112 620 110.881 620 109.5Z" fill="#E8EDF4"/>
<path d="M651 109.5C651 108.119 652.119 107 653.5 107H673.5C674.881 107 676 108.119 676 109.5C676 110.881 674.881 112 673.5 112H653.5C652.119 112 651 110.881 651 109.5Z" fill="#E8EDF4"/>
<path d="M713 109.5C713 108.119 714.119 107 715.5 107H735.5C736.881 107 738 108.119 738 109.5C738 110.881 736.881 112 735.5 112H715.5C714.119 112 713 110.881 713 109.5Z" fill="#E8EDF4"/>
<path d="M651 63.5C651 62.1193 652.119 61 653.5 61H673.5C674.881 61 676 62.1193 676 63.5C676 64.8807 674.881 66 673.5 66H653.5C652.119 66 651 64.8807 651 63.5Z" fill="#E8EDF4"/>
<path d="M713 63.5C713 62.1193 714.119 61 715.5 61H735.5C736.881 61 738 62.1193 738 63.5C738 64.8807 736.881 66 735.5 66H715.5C714.119 66 713 64.8807 713 63.5Z" fill="#E8EDF4"/>
<path d="M682 109.5C682 108.119 683.119 107 684.5 107H704.5C705.881 107 707 108.119 707 109.5C707 110.881 705.881 112 704.5 112H684.5C683.119 112 682 110.881 682 109.5Z" fill="#E8EDF4"/>
<path d="M682 63.5C682 62.1193 683.119 61 684.5 61H704.5C705.881 61 707 62.1193 707 63.5C707 64.8807 705.881 66 704.5 66H684.5C683.119 66 682 64.8807 682 63.5Z" fill="#E8EDF4"/>
<path d="M744 78.5C744 77.1193 745.119 76 746.5 76H766.5C767.881 76 769 77.1193 769 78.5C769 79.8807 767.881 81 766.5 81H746.5C745.119 81 744 79.8807 744 78.5Z" fill="#E8EDF4"/>
<path d="M775 78.5C775 77.1193 776.119 76 777.5 76H797.5C798.881 76 800 77.1193 800 78.5C800 79.8807 798.881 81 797.5 81H777.5C776.119 81 775 79.8807 775 78.5Z" fill="#E8EDF4"/>
<path d="M837 78.5C837 77.1193 838.119 76 839.5 76H859.5C860.881 76 862 77.1193 862 78.5C862 79.8807 860.881 81 859.5 81H839.5C838.119 81 837 79.8807 837 78.5Z" fill="#E8EDF4"/>
<path d="M775 32.5C775 31.1193 776.119 30 777.5 30H797.5C798.881 30 800 31.1193 800 32.5C800 33.8807 798.881 35 797.5 35H777.5C776.119 35 775 33.8807 775 32.5Z" fill="#E8EDF4"/>
<path d="M837 32.5C837 31.1193 838.119 30 839.5 30H859.5C860.881 30 862 31.1193 862 32.5C862 33.8807 860.881 35 859.5 35H839.5C838.119 35 837 33.8807 837 32.5Z" fill="#E8EDF4"/>
<path d="M837 2.5C837 1.11929 838.119 0 839.5 0H859.5C860.881 0 862 1.11929 862 2.5C862 3.88071 860.881 5 859.5 5H839.5C838.119 5 837 3.88071 837 2.5Z" fill="#E8EDF4"/>
<path d="M806 78.5C806 77.1193 807.119 76 808.5 76H828.5C829.881 76 831 77.1193 831 78.5C831 79.8807 829.881 81 828.5 81H808.5C807.119 81 806 79.8807 806 78.5Z" fill="#E8EDF4"/>
<path d="M744 93.5C744 92.1193 745.119 91 746.5 91H766.5C767.881 91 769 92.1193 769 93.5C769 94.8807 767.881 96 766.5 96H746.5C745.119 96 744 94.8807 744 93.5Z" fill="#E8EDF4"/>
<path d="M775 93.5C775 92.1193 776.119 91 777.5 91H797.5C798.881 91 800 92.1193 800 93.5C800 94.8807 798.881 96 797.5 96H777.5C776.119 96 775 94.8807 775 93.5Z" fill="#E8EDF4"/>
<path d="M837 93.5C837 92.1193 838.119 91 839.5 91H859.5C860.881 91 862 92.1193 862 93.5C862 94.8807 860.881 96 859.5 96H839.5C838.119 96 837 94.8807 837 93.5Z" fill="#E8EDF4"/>
<path d="M775 47.5C775 46.1193 776.119 45 777.5 45H797.5C798.881 45 800 46.1193 800 47.5C800 48.8807 798.881 50 797.5 50H777.5C776.119 50 775 48.8807 775 47.5Z" fill="#E8EDF4"/>
<path d="M837 47.5C837 46.1193 838.119 45 839.5 45H859.5C860.881 45 862 46.1193 862 47.5C862 48.8807 860.881 50 859.5 50H839.5C838.119 50 837 48.8807 837 47.5Z" fill="#E8EDF4"/>
<path d="M837 17.5C837 16.1193 838.119 15 839.5 15H859.5C860.881 15 862 16.1193 862 17.5C862 18.8807 860.881 20 859.5 20H839.5C838.119 20 837 18.8807 837 17.5Z" fill="#E8EDF4"/>
<path d="M806 93.5C806 92.1193 807.119 91 808.5 91H828.5C829.881 91 831 92.1193 831 93.5C831 94.8807 829.881 96 828.5 96H808.5C807.119 96 806 94.8807 806 93.5Z" fill="#E8EDF4"/>
<path d="M806 47.5C806 46.1193 807.119 45 808.5 45H828.5C829.881 45 831 46.1193 831 47.5C831 48.8807 829.881 50 828.5 50H808.5C807.119 50 806 48.8807 806 47.5Z" fill="#E8EDF4"/>
<path d="M744 109.5C744 108.119 745.119 107 746.5 107H766.5C767.881 107 769 108.119 769 109.5C769 110.881 767.881 112 766.5 112H746.5C745.119 112 744 110.881 744 109.5Z" fill="#E8EDF4"/>
<path d="M775 109.5C775 108.119 776.119 107 777.5 107H797.5C798.881 107 800 108.119 800 109.5C800 110.881 798.881 112 797.5 112H777.5C776.119 112 775 110.881 775 109.5Z" fill="#E8EDF4"/>
<path d="M837 109.5C837 108.119 838.119 107 839.5 107H859.5C860.881 107 862 108.119 862 109.5C862 110.881 860.881 112 859.5 112H839.5C838.119 112 837 110.881 837 109.5Z" fill="#E8EDF4"/>
<path d="M775 63.5C775 62.1193 776.119 61 777.5 61H797.5C798.881 61 800 62.1193 800 63.5C800 64.8807 798.881 66 797.5 66H777.5C776.119 66 775 64.8807 775 63.5Z" fill="#E8EDF4"/>
<path d="M837 63.5C837 62.1193 838.119 61 839.5 61H859.5C860.881 61 862 62.1193 862 63.5C862 64.8807 860.881 66 859.5 66H839.5C838.119 66 837 64.8807 837 63.5Z" fill="#E8EDF4"/>
<path d="M806 109.5C806 108.119 807.119 107 808.5 107H828.5C829.881 107 831 108.119 831 109.5C831 110.881 829.881 112 828.5 112H808.5C807.119 112 806 110.881 806 109.5Z" fill="#E8EDF4"/>
<path d="M806 63.5C806 62.1193 807.119 61 808.5 61H828.5C829.881 61 831 62.1193 831 63.5C831 64.8807 829.881 66 828.5 66H808.5C807.119 66 806 64.8807 806 63.5Z" fill="#E8EDF4"/>
<path d="M868 78.5C868 77.1193 869.119 76 870.5 76H890.5C891.881 76 893 77.1193 893 78.5C893 79.8807 891.881 81 890.5 81H870.5C869.119 81 868 79.8807 868 78.5Z" fill="#E8EDF4"/>
<path d="M899 78.5C899 77.1193 900.119 76 901.5 76H921.5C922.881 76 924 77.1193 924 78.5C924 79.8807 922.881 81 921.5 81H901.5C900.119 81 899 79.8807 899 78.5Z" fill="#E8EDF4"/>
<path d="M961 78.5C961 77.1193 962.119 76 963.5 76H983.5C984.881 76 986 77.1193 986 78.5C986 79.8807 984.881 81 983.5 81H963.5C962.119 81 961 79.8807 961 78.5Z" fill="#E8EDF4"/>
<path d="M899 32.5C899 31.1193 900.119 30 901.5 30H921.5C922.881 30 924 31.1193 924 32.5C924 33.8807 922.881 35 921.5 35H901.5C900.119 35 899 33.8807 899 32.5Z" fill="#E8EDF4"/>
<path d="M961 32.5C961 31.1193 962.119 30 963.5 30H983.5C984.881 30 986 31.1193 986 32.5C986 33.8807 984.881 35 983.5 35H963.5C962.119 35 961 33.8807 961 32.5Z" fill="#E8EDF4"/>
<path d="M961 2.5C961 1.11929 962.119 0 963.5 0H983.5C984.881 0 986 1.11929 986 2.5C986 3.88071 984.881 5 983.5 5H963.5C962.119 5 961 3.88071 961 2.5Z" fill="#E8EDF4"/>
<path d="M930 78.5C930 77.1193 931.119 76 932.5 76H952.5C953.881 76 955 77.1193 955 78.5C955 79.8807 953.881 81 952.5 81H932.5C931.119 81 930 79.8807 930 78.5Z" fill="#E8EDF4"/>
<path d="M868 93.5C868 92.1193 869.119 91 870.5 91H890.5C891.881 91 893 92.1193 893 93.5C893 94.8807 891.881 96 890.5 96H870.5C869.119 96 868 94.8807 868 93.5Z" fill="#E8EDF4"/>
<path d="M899 93.5C899 92.1193 900.119 91 901.5 91H921.5C922.881 91 924 92.1193 924 93.5C924 94.8807 922.881 96 921.5 96H901.5C900.119 96 899 94.8807 899 93.5Z" fill="#E8EDF4"/>
<path d="M961 93.5C961 92.1193 962.119 91 963.5 91H983.5C984.881 91 986 92.1193 986 93.5C986 94.8807 984.881 96 983.5 96H963.5C962.119 96 961 94.8807 961 93.5Z" fill="#E8EDF4"/>
<path d="M899 47.5C899 46.1193 900.119 45 901.5 45H921.5C922.881 45 924 46.1193 924 47.5C924 48.8807 922.881 50 921.5 50H901.5C900.119 50 899 48.8807 899 47.5Z" fill="#E8EDF4"/>
<path d="M961 47.5C961 46.1193 962.119 45 963.5 45H983.5C984.881 45 986 46.1193 986 47.5C986 48.8807 984.881 50 983.5 50H963.5C962.119 50 961 48.8807 961 47.5Z" fill="#E8EDF4"/>
<path d="M961 17.5C961 16.1193 962.119 15 963.5 15H983.5C984.881 15 986 16.1193 986 17.5C986 18.8807 984.881 20 983.5 20H963.5C962.119 20 961 18.8807 961 17.5Z" fill="#E8EDF4"/>
<path d="M930 93.5C930 92.1193 931.119 91 932.5 91H952.5C953.881 91 955 92.1193 955 93.5C955 94.8807 953.881 96 952.5 96H932.5C931.119 96 930 94.8807 930 93.5Z" fill="#E8EDF4"/>
<path d="M930 47.5C930 46.1193 931.119 45 932.5 45H952.5C953.881 45 955 46.1193 955 47.5C955 48.8807 953.881 50 952.5 50H932.5C931.119 50 930 48.8807 930 47.5Z" fill="#E8EDF4"/>
<path d="M868 109.5C868 108.119 869.119 107 870.5 107H890.5C891.881 107 893 108.119 893 109.5C893 110.881 891.881 112 890.5 112H870.5C869.119 112 868 110.881 868 109.5Z" fill="#E8EDF4"/>
<path d="M899 109.5C899 108.119 900.119 107 901.5 107H921.5C922.881 107 924 108.119 924 109.5C924 110.881 922.881 112 921.5 112H901.5C900.119 112 899 110.881 899 109.5Z" fill="#E8EDF4"/>
<path d="M961 109.5C961 108.119 962.119 107 963.5 107H983.5C984.881 107 986 108.119 986 109.5C986 110.881 984.881 112 983.5 112H963.5C962.119 112 961 110.881 961 109.5Z" fill="#E8EDF4"/>
<path d="M899 63.5C899 62.1193 900.119 61 901.5 61H921.5C922.881 61 924 62.1193 924 63.5C924 64.8807 922.881 66 921.5 66H901.5C900.119 66 899 64.8807 899 63.5Z" fill="#E8EDF4"/>
<path d="M961 63.5C961 62.1193 962.119 61 963.5 61H983.5C984.881 61 986 62.1193 986 63.5C986 64.8807 984.881 66 983.5 66H963.5C962.119 66 961 64.8807 961 63.5Z" fill="#E8EDF4"/>
<path d="M930 109.5C930 108.119 931.119 107 932.5 107H952.5C953.881 107 955 108.119 955 109.5C955 110.881 953.881 112 952.5 112H932.5C931.119 112 930 110.881 930 109.5Z" fill="#E8EDF4"/>
<path d="M930 63.5C930 62.1193 931.119 61 932.5 61H952.5C953.881 61 955 62.1193 955 63.5C955 64.8807 953.881 66 952.5 66H932.5C931.119 66 930 64.8807 930 63.5Z" fill="#E8EDF4"/>
<path d="M992 78.5C992 77.1193 993.119 76 994.5 76H1014.5C1015.88 76 1017 77.1193 1017 78.5C1017 79.8807 1015.88 81 1014.5 81H994.5C993.119 81 992 79.8807 992 78.5Z" fill="#E8EDF4"/>
<path d="M1023 78.5C1023 77.1193 1024.12 76 1025.5 76H1045.5C1046.88 76 1048 77.1193 1048 78.5C1048 79.8807 1046.88 81 1045.5 81H1025.5C1024.12 81 1023 79.8807 1023 78.5Z" fill="#E8EDF4"/>
<path d="M1085 78.5C1085 77.1193 1086.12 76 1087.5 76H1107.5C1108.88 76 1110 77.1193 1110 78.5C1110 79.8807 1108.88 81 1107.5 81H1087.5C1086.12 81 1085 79.8807 1085 78.5Z" fill="#E8EDF4"/>
<path d="M1023 32.5C1023 31.1193 1024.12 30 1025.5 30H1045.5C1046.88 30 1048 31.1193 1048 32.5C1048 33.8807 1046.88 35 1045.5 35H1025.5C1024.12 35 1023 33.8807 1023 32.5Z" fill="#E8EDF4"/>
<path d="M1085 32.5C1085 31.1193 1086.12 30 1087.5 30H1107.5C1108.88 30 1110 31.1193 1110 32.5C1110 33.8807 1108.88 35 1107.5 35H1087.5C1086.12 35 1085 33.8807 1085 32.5Z" fill="#E8EDF4"/>
<path d="M1085 2.5C1085 1.11929 1086.12 0 1087.5 0H1107.5C1108.88 0 1110 1.11929 1110 2.5C1110 3.88071 1108.88 5 1107.5 5H1087.5C1086.12 5 1085 3.88071 1085 2.5Z" fill="#E8EDF4"/>
<path d="M1054 78.5C1054 77.1193 1055.12 76 1056.5 76H1076.5C1077.88 76 1079 77.1193 1079 78.5C1079 79.8807 1077.88 81 1076.5 81H1056.5C1055.12 81 1054 79.8807 1054 78.5Z" fill="#E8EDF4"/>
<path d="M992 93.5C992 92.1193 993.119 91 994.5 91H1014.5C1015.88 91 1017 92.1193 1017 93.5C1017 94.8807 1015.88 96 1014.5 96H994.5C993.119 96 992 94.8807 992 93.5Z" fill="#E8EDF4"/>
<path d="M1023 93.5C1023 92.1193 1024.12 91 1025.5 91H1045.5C1046.88 91 1048 92.1193 1048 93.5C1048 94.8807 1046.88 96 1045.5 96H1025.5C1024.12 96 1023 94.8807 1023 93.5Z" fill="#E8EDF4"/>
<path d="M1085 93.5C1085 92.1193 1086.12 91 1087.5 91H1107.5C1108.88 91 1110 92.1193 1110 93.5C1110 94.8807 1108.88 96 1107.5 96H1087.5C1086.12 96 1085 94.8807 1085 93.5Z" fill="#E8EDF4"/>
<path d="M1023 47.5C1023 46.1193 1024.12 45 1025.5 45H1045.5C1046.88 45 1048 46.1193 1048 47.5C1048 48.8807 1046.88 50 1045.5 50H1025.5C1024.12 50 1023 48.8807 1023 47.5Z" fill="#E8EDF4"/>
<path d="M1085 47.5C1085 46.1193 1086.12 45 1087.5 45H1107.5C1108.88 45 1110 46.1193 1110 47.5C1110 48.8807 1108.88 50 1107.5 50H1087.5C1086.12 50 1085 48.8807 1085 47.5Z" fill="#E8EDF4"/>
<path d="M1085 17.5C1085 16.1193 1086.12 15 1087.5 15H1107.5C1108.88 15 1110 16.1193 1110 17.5C1110 18.8807 1108.88 20 1107.5 20H1087.5C1086.12 20 1085 18.8807 1085 17.5Z" fill="#E8EDF4"/>
<path d="M1054 93.5C1054 92.1193 1055.12 91 1056.5 91H1076.5C1077.88 91 1079 92.1193 1079 93.5C1079 94.8807 1077.88 96 1076.5 96H1056.5C1055.12 96 1054 94.8807 1054 93.5Z" fill="#E8EDF4"/>
<path d="M1054 47.5C1054 46.1193 1055.12 45 1056.5 45H1076.5C1077.88 45 1079 46.1193 1079 47.5C1079 48.8807 1077.88 50 1076.5 50H1056.5C1055.12 50 1054 48.8807 1054 47.5Z" fill="#E8EDF4"/>
<path d="M992 109.5C992 108.119 993.119 107 994.5 107H1014.5C1015.88 107 1017 108.119 1017 109.5C1017 110.881 1015.88 112 1014.5 112H994.5C993.119 112 992 110.881 992 109.5Z" fill="#E8EDF4"/>
<path d="M1023 109.5C1023 108.119 1024.12 107 1025.5 107H1045.5C1046.88 107 1048 108.119 1048 109.5C1048 110.881 1046.88 112 1045.5 112H1025.5C1024.12 112 1023 110.881 1023 109.5Z" fill="#E8EDF4"/>
<path d="M1085 109.5C1085 108.119 1086.12 107 1087.5 107H1107.5C1108.88 107 1110 108.119 1110 109.5C1110 110.881 1108.88 112 1107.5 112H1087.5C1086.12 112 1085 110.881 1085 109.5Z" fill="#E8EDF4"/>
<path d="M1023 63.5C1023 62.1193 1024.12 61 1025.5 61H1045.5C1046.88 61 1048 62.1193 1048 63.5C1048 64.8807 1046.88 66 1045.5 66H1025.5C1024.12 66 1023 64.8807 1023 63.5Z" fill="#E8EDF4"/>
<path d="M1085 63.5C1085 62.1193 1086.12 61 1087.5 61H1107.5C1108.88 61 1110 62.1193 1110 63.5C1110 64.8807 1108.88 66 1107.5 66H1087.5C1086.12 66 1085 64.8807 1085 63.5Z" fill="#E8EDF4"/>
<path d="M1054 109.5C1054 108.119 1055.12 107 1056.5 107H1076.5C1077.88 107 1079 108.119 1079 109.5C1079 110.881 1077.88 112 1076.5 112H1056.5C1055.12 112 1054 110.881 1054 109.5Z" fill="#E8EDF4"/>
<path d="M1054 63.5C1054 62.1193 1055.12 61 1056.5 61H1076.5C1077.88 61 1079 62.1193 1079 63.5C1079 64.8807 1077.88 66 1076.5 66H1056.5C1055.12 66 1054 64.8807 1054 63.5Z" fill="#E8EDF4"/>
<path d="M1116 78.5C1116 77.1193 1117.12 76 1118.5 76H1138.5C1139.88 76 1141 77.1193 1141 78.5C1141 79.8807 1139.88 81 1138.5 81H1118.5C1117.12 81 1116 79.8807 1116 78.5Z" fill="#E8EDF4"/>
<path d="M1147 78.5C1147 77.1193 1148.12 76 1149.5 76H1169.5C1170.88 76 1172 77.1193 1172 78.5C1172 79.8807 1170.88 81 1169.5 81H1149.5C1148.12 81 1147 79.8807 1147 78.5Z" fill="#E8EDF4"/>
<path d="M1209 78.5C1209 77.1193 1210.12 76 1211.5 76H1231.5C1232.88 76 1234 77.1193 1234 78.5C1234 79.8807 1232.88 81 1231.5 81H1211.5C1210.12 81 1209 79.8807 1209 78.5Z" fill="#E8EDF4"/>
<path d="M1147 32.5C1147 31.1193 1148.12 30 1149.5 30H1169.5C1170.88 30 1172 31.1193 1172 32.5C1172 33.8807 1170.88 35 1169.5 35H1149.5C1148.12 35 1147 33.8807 1147 32.5Z" fill="#E8EDF4"/>
<path d="M1209 32.5C1209 31.1193 1210.12 30 1211.5 30H1231.5C1232.88 30 1234 31.1193 1234 32.5C1234 33.8807 1232.88 35 1231.5 35H1211.5C1210.12 35 1209 33.8807 1209 32.5Z" fill="#E8EDF4"/>
<path d="M1209 2.5C1209 1.11929 1210.12 0 1211.5 0H1231.5C1232.88 0 1234 1.11929 1234 2.5C1234 3.88071 1232.88 5 1231.5 5H1211.5C1210.12 5 1209 3.88071 1209 2.5Z" fill="#E8EDF4"/>
<path d="M1178 78.5C1178 77.1193 1179.12 76 1180.5 76H1200.5C1201.88 76 1203 77.1193 1203 78.5C1203 79.8807 1201.88 81 1200.5 81H1180.5C1179.12 81 1178 79.8807 1178 78.5Z" fill="#E8EDF4"/>
<path d="M1116 93.5C1116 92.1193 1117.12 91 1118.5 91H1138.5C1139.88 91 1141 92.1193 1141 93.5C1141 94.8807 1139.88 96 1138.5 96H1118.5C1117.12 96 1116 94.8807 1116 93.5Z" fill="#E8EDF4"/>
<path d="M1147 93.5C1147 92.1193 1148.12 91 1149.5 91H1169.5C1170.88 91 1172 92.1193 1172 93.5C1172 94.8807 1170.88 96 1169.5 96H1149.5C1148.12 96 1147 94.8807 1147 93.5Z" fill="#E8EDF4"/>
<path d="M1209 93.5C1209 92.1193 1210.12 91 1211.5 91H1231.5C1232.88 91 1234 92.1193 1234 93.5C1234 94.8807 1232.88 96 1231.5 96H1211.5C1210.12 96 1209 94.8807 1209 93.5Z" fill="#E8EDF4"/>
<path d="M1147 47.5C1147 46.1193 1148.12 45 1149.5 45H1169.5C1170.88 45 1172 46.1193 1172 47.5C1172 48.8807 1170.88 50 1169.5 50H1149.5C1148.12 50 1147 48.8807 1147 47.5Z" fill="#E8EDF4"/>
<path d="M1209 47.5C1209 46.1193 1210.12 45 1211.5 45H1231.5C1232.88 45 1234 46.1193 1234 47.5C1234 48.8807 1232.88 50 1231.5 50H1211.5C1210.12 50 1209 48.8807 1209 47.5Z" fill="#E8EDF4"/>
<path d="M1209 17.5C1209 16.1193 1210.12 15 1211.5 15H1231.5C1232.88 15 1234 16.1193 1234 17.5C1234 18.8807 1232.88 20 1231.5 20H1211.5C1210.12 20 1209 18.8807 1209 17.5Z" fill="#E8EDF4"/>
<path d="M1178 93.5C1178 92.1193 1179.12 91 1180.5 91H1200.5C1201.88 91 1203 92.1193 1203 93.5C1203 94.8807 1201.88 96 1200.5 96H1180.5C1179.12 96 1178 94.8807 1178 93.5Z" fill="#E8EDF4"/>
<path d="M1178 47.5C1178 46.1193 1179.12 45 1180.5 45H1200.5C1201.88 45 1203 46.1193 1203 47.5C1203 48.8807 1201.88 50 1200.5 50H1180.5C1179.12 50 1178 48.8807 1178 47.5Z" fill="#E8EDF4"/>
<path d="M1116 109.5C1116 108.119 1117.12 107 1118.5 107H1138.5C1139.88 107 1141 108.119 1141 109.5C1141 110.881 1139.88 112 1138.5 112H1118.5C1117.12 112 1116 110.881 1116 109.5Z" fill="#E8EDF4"/>
<path d="M1147 109.5C1147 108.119 1148.12 107 1149.5 107H1169.5C1170.88 107 1172 108.119 1172 109.5C1172 110.881 1170.88 112 1169.5 112H1149.5C1148.12 112 1147 110.881 1147 109.5Z" fill="#E8EDF4"/>
<path d="M1209 109.5C1209 108.119 1210.12 107 1211.5 107H1231.5C1232.88 107 1234 108.119 1234 109.5C1234 110.881 1232.88 112 1231.5 112H1211.5C1210.12 112 1209 110.881 1209 109.5Z" fill="#E8EDF4"/>
<path d="M1147 63.5C1147 62.1193 1148.12 61 1149.5 61H1169.5C1170.88 61 1172 62.1193 1172 63.5C1172 64.8807 1170.88 66 1169.5 66H1149.5C1148.12 66 1147 64.8807 1147 63.5Z" fill="#E8EDF4"/>
<path d="M1209 63.5C1209 62.1193 1210.12 61 1211.5 61H1231.5C1232.88 61 1234 62.1193 1234 63.5C1234 64.8807 1232.88 66 1231.5 66H1211.5C1210.12 66 1209 64.8807 1209 63.5Z" fill="#E8EDF4"/>
<path d="M1178 109.5C1178 108.119 1179.12 107 1180.5 107H1200.5C1201.88 107 1203 108.119 1203 109.5C1203 110.881 1201.88 112 1200.5 112H1180.5C1179.12 112 1178 110.881 1178 109.5Z" fill="#E8EDF4"/>
<path d="M1178 63.5C1178 62.1193 1179.12 61 1180.5 61H1200.5C1201.88 61 1203 62.1193 1203 63.5C1203 64.8807 1201.88 66 1200.5 66H1180.5C1179.12 66 1178 64.8807 1178 63.5Z" fill="#E8EDF4"/>
<path d="M1240 78.5C1240 77.1193 1241.12 76 1242.5 76H1262.5C1263.88 76 1265 77.1193 1265 78.5C1265 79.8807 1263.88 81 1262.5 81H1242.5C1241.12 81 1240 79.8807 1240 78.5Z" fill="#E8EDF4"/>
<path d="M1271 78.5C1271 77.1193 1272.12 76 1273.5 76H1293.5C1294.88 76 1296 77.1193 1296 78.5C1296 79.8807 1294.88 81 1293.5 81H1273.5C1272.12 81 1271 79.8807 1271 78.5Z" fill="#E8EDF4"/>
<path d="M1333 78.5C1333 77.1193 1334.12 76 1335.5 76H1355.5C1356.88 76 1358 77.1193 1358 78.5C1358 79.8807 1356.88 81 1355.5 81H1335.5C1334.12 81 1333 79.8807 1333 78.5Z" fill="#E8EDF4"/>
<path d="M1271 32.5C1271 31.1193 1272.12 30 1273.5 30H1293.5C1294.88 30 1296 31.1193 1296 32.5C1296 33.8807 1294.88 35 1293.5 35H1273.5C1272.12 35 1271 33.8807 1271 32.5Z" fill="#E8EDF4"/>
<path d="M1333 32.5C1333 31.1193 1334.12 30 1335.5 30H1355.5C1356.88 30 1358 31.1193 1358 32.5C1358 33.8807 1356.88 35 1355.5 35H1335.5C1334.12 35 1333 33.8807 1333 32.5Z" fill="#E8EDF4"/>
<path d="M1333 2.5C1333 1.11929 1334.12 0 1335.5 0H1355.5C1356.88 0 1358 1.11929 1358 2.5C1358 3.88071 1356.88 5 1355.5 5H1335.5C1334.12 5 1333 3.88071 1333 2.5Z" fill="#E8EDF4"/>
<path d="M1302 78.5C1302 77.1193 1303.12 76 1304.5 76H1324.5C1325.88 76 1327 77.1193 1327 78.5C1327 79.8807 1325.88 81 1324.5 81H1304.5C1303.12 81 1302 79.8807 1302 78.5Z" fill="#E8EDF4"/>
<path d="M1240 93.5C1240 92.1193 1241.12 91 1242.5 91H1262.5C1263.88 91 1265 92.1193 1265 93.5C1265 94.8807 1263.88 96 1262.5 96H1242.5C1241.12 96 1240 94.8807 1240 93.5Z" fill="#E8EDF4"/>
<path d="M1271 93.5C1271 92.1193 1272.12 91 1273.5 91H1293.5C1294.88 91 1296 92.1193 1296 93.5C1296 94.8807 1294.88 96 1293.5 96H1273.5C1272.12 96 1271 94.8807 1271 93.5Z" fill="#E8EDF4"/>
<path d="M1333 93.5C1333 92.1193 1334.12 91 1335.5 91H1355.5C1356.88 91 1358 92.1193 1358 93.5C1358 94.8807 1356.88 96 1355.5 96H1335.5C1334.12 96 1333 94.8807 1333 93.5Z" fill="#E8EDF4"/>
<path d="M1271 47.5C1271 46.1193 1272.12 45 1273.5 45H1293.5C1294.88 45 1296 46.1193 1296 47.5C1296 48.8807 1294.88 50 1293.5 50H1273.5C1272.12 50 1271 48.8807 1271 47.5Z" fill="#E8EDF4"/>
<path d="M1333 47.5C1333 46.1193 1334.12 45 1335.5 45H1355.5C1356.88 45 1358 46.1193 1358 47.5C1358 48.8807 1356.88 50 1355.5 50H1335.5C1334.12 50 1333 48.8807 1333 47.5Z" fill="#E8EDF4"/>
<path d="M1333 17.5C1333 16.1193 1334.12 15 1335.5 15H1355.5C1356.88 15 1358 16.1193 1358 17.5C1358 18.8807 1356.88 20 1355.5 20H1335.5C1334.12 20 1333 18.8807 1333 17.5Z" fill="#E8EDF4"/>
<path d="M1302 93.5C1302 92.1193 1303.12 91 1304.5 91H1324.5C1325.88 91 1327 92.1193 1327 93.5C1327 94.8807 1325.88 96 1324.5 96H1304.5C1303.12 96 1302 94.8807 1302 93.5Z" fill="#E8EDF4"/>
<path d="M1302 47.5C1302 46.1193 1303.12 45 1304.5 45H1324.5C1325.88 45 1327 46.1193 1327 47.5C1327 48.8807 1325.88 50 1324.5 50H1304.5C1303.12 50 1302 48.8807 1302 47.5Z" fill="#E8EDF4"/>
<path d="M1240 109.5C1240 108.119 1241.12 107 1242.5 107H1262.5C1263.88 107 1265 108.119 1265 109.5C1265 110.881 1263.88 112 1262.5 112H1242.5C1241.12 112 1240 110.881 1240 109.5Z" fill="#E8EDF4"/>
<path d="M1271 109.5C1271 108.119 1272.12 107 1273.5 107H1293.5C1294.88 107 1296 108.119 1296 109.5C1296 110.881 1294.88 112 1293.5 112H1273.5C1272.12 112 1271 110.881 1271 109.5Z" fill="#E8EDF4"/>
<path d="M1333 109.5C1333 108.119 1334.12 107 1335.5 107H1355.5C1356.88 107 1358 108.119 1358 109.5C1358 110.881 1356.88 112 1355.5 112H1335.5C1334.12 112 1333 110.881 1333 109.5Z" fill="#E8EDF4"/>
<path d="M1271 63.5C1271 62.1193 1272.12 61 1273.5 61H1293.5C1294.88 61 1296 62.1193 1296 63.5C1296 64.8807 1294.88 66 1293.5 66H1273.5C1272.12 66 1271 64.8807 1271 63.5Z" fill="#E8EDF4"/>
<path d="M1333 63.5C1333 62.1193 1334.12 61 1335.5 61H1355.5C1356.88 61 1358 62.1193 1358 63.5C1358 64.8807 1356.88 66 1355.5 66H1335.5C1334.12 66 1333 64.8807 1333 63.5Z" fill="#E8EDF4"/>
<path d="M1302 109.5C1302 108.119 1303.12 107 1304.5 107H1324.5C1325.88 107 1327 108.119 1327 109.5C1327 110.881 1325.88 112 1324.5 112H1304.5C1303.12 112 1302 110.881 1302 109.5Z" fill="#E8EDF4"/>
<path d="M1302 63.5C1302 62.1193 1303.12 61 1304.5 61H1324.5C1325.88 61 1327 62.1193 1327 63.5C1327 64.8807 1325.88 66 1324.5 66H1304.5C1303.12 66 1302 64.8807 1302 63.5Z" fill="#E8EDF4"/>
<path d="M1364 78.5C1364 77.1193 1365.12 76 1366.5 76H1386.5C1387.88 76 1389 77.1193 1389 78.5C1389 79.8807 1387.88 81 1386.5 81H1366.5C1365.12 81 1364 79.8807 1364 78.5Z" fill="#E8EDF4"/>
<path d="M1395 78.5C1395 77.1193 1396.12 76 1397.5 76H1417.5C1418.88 76 1420 77.1193 1420 78.5C1420 79.8807 1418.88 81 1417.5 81H1397.5C1396.12 81 1395 79.8807 1395 78.5Z" fill="#E8EDF4"/>
<path d="M1457 78.5C1457 77.1193 1458.12 76 1459.5 76H1479.5C1480.88 76 1482 77.1193 1482 78.5C1482 79.8807 1480.88 81 1479.5 81H1459.5C1458.12 81 1457 79.8807 1457 78.5Z" fill="#E8EDF4"/>
<path d="M1395 32.5C1395 31.1193 1396.12 30 1397.5 30H1417.5C1418.88 30 1420 31.1193 1420 32.5C1420 33.8807 1418.88 35 1417.5 35H1397.5C1396.12 35 1395 33.8807 1395 32.5Z" fill="#E8EDF4"/>
<path d="M1457 32.5C1457 31.1193 1458.12 30 1459.5 30H1479.5C1480.88 30 1482 31.1193 1482 32.5C1482 33.8807 1480.88 35 1479.5 35H1459.5C1458.12 35 1457 33.8807 1457 32.5Z" fill="#E8EDF4"/>
<path d="M1457 2.5C1457 1.11929 1458.12 0 1459.5 0H1479.5C1480.88 0 1482 1.11929 1482 2.5C1482 3.88071 1480.88 5 1479.5 5H1459.5C1458.12 5 1457 3.88071 1457 2.5Z" fill="#E8EDF4"/>
<path d="M1426 78.5C1426 77.1193 1427.12 76 1428.5 76H1448.5C1449.88 76 1451 77.1193 1451 78.5C1451 79.8807 1449.88 81 1448.5 81H1428.5C1427.12 81 1426 79.8807 1426 78.5Z" fill="#E8EDF4"/>
<path d="M1364 93.5C1364 92.1193 1365.12 91 1366.5 91H1386.5C1387.88 91 1389 92.1193 1389 93.5C1389 94.8807 1387.88 96 1386.5 96H1366.5C1365.12 96 1364 94.8807 1364 93.5Z" fill="#E8EDF4"/>
<path d="M1395 93.5C1395 92.1193 1396.12 91 1397.5 91H1417.5C1418.88 91 1420 92.1193 1420 93.5C1420 94.8807 1418.88 96 1417.5 96H1397.5C1396.12 96 1395 94.8807 1395 93.5Z" fill="#E8EDF4"/>
<path d="M1457 93.5C1457 92.1193 1458.12 91 1459.5 91H1479.5C1480.88 91 1482 92.1193 1482 93.5C1482 94.8807 1480.88 96 1479.5 96H1459.5C1458.12 96 1457 94.8807 1457 93.5Z" fill="#E8EDF4"/>
<path d="M1395 47.5C1395 46.1193 1396.12 45 1397.5 45H1417.5C1418.88 45 1420 46.1193 1420 47.5C1420 48.8807 1418.88 50 1417.5 50H1397.5C1396.12 50 1395 48.8807 1395 47.5Z" fill="#E8EDF4"/>
<path d="M1457 47.5C1457 46.1193 1458.12 45 1459.5 45H1479.5C1480.88 45 1482 46.1193 1482 47.5C1482 48.8807 1480.88 50 1479.5 50H1459.5C1458.12 50 1457 48.8807 1457 47.5Z" fill="#E8EDF4"/>
<path d="M1457 17.5C1457 16.1193 1458.12 15 1459.5 15H1479.5C1480.88 15 1482 16.1193 1482 17.5C1482 18.8807 1480.88 20 1479.5 20H1459.5C1458.12 20 1457 18.8807 1457 17.5Z" fill="#E8EDF4"/>
<path d="M1426 93.5C1426 92.1193 1427.12 91 1428.5 91H1448.5C1449.88 91 1451 92.1193 1451 93.5C1451 94.8807 1449.88 96 1448.5 96H1428.5C1427.12 96 1426 94.8807 1426 93.5Z" fill="#E8EDF4"/>
<path d="M1426 47.5C1426 46.1193 1427.12 45 1428.5 45H1448.5C1449.88 45 1451 46.1193 1451 47.5C1451 48.8807 1449.88 50 1448.5 50H1428.5C1427.12 50 1426 48.8807 1426 47.5Z" fill="#E8EDF4"/>
<path d="M1364 109.5C1364 108.119 1365.12 107 1366.5 107H1386.5C1387.88 107 1389 108.119 1389 109.5C1389 110.881 1387.88 112 1386.5 112H1366.5C1365.12 112 1364 110.881 1364 109.5Z" fill="#E8EDF4"/>
<path d="M1395 109.5C1395 108.119 1396.12 107 1397.5 107H1417.5C1418.88 107 1420 108.119 1420 109.5C1420 110.881 1418.88 112 1417.5 112H1397.5C1396.12 112 1395 110.881 1395 109.5Z" fill="#E8EDF4"/>
<path d="M1457 109.5C1457 108.119 1458.12 107 1459.5 107H1479.5C1480.88 107 1482 108.119 1482 109.5C1482 110.881 1480.88 112 1479.5 112H1459.5C1458.12 112 1457 110.881 1457 109.5Z" fill="#E8EDF4"/>
<path d="M1395 63.5C1395 62.1193 1396.12 61 1397.5 61H1417.5C1418.88 61 1420 62.1193 1420 63.5C1420 64.8807 1418.88 66 1417.5 66H1397.5C1396.12 66 1395 64.8807 1395 63.5Z" fill="#E8EDF4"/>
<path d="M1457 63.5C1457 62.1193 1458.12 61 1459.5 61H1479.5C1480.88 61 1482 62.1193 1482 63.5C1482 64.8807 1480.88 66 1479.5 66H1459.5C1458.12 66 1457 64.8807 1457 63.5Z" fill="#E8EDF4"/>
<path d="M1426 109.5C1426 108.119 1427.12 107 1428.5 107H1448.5C1449.88 107 1451 108.119 1451 109.5C1451 110.881 1449.88 112 1448.5 112H1428.5C1427.12 112 1426 110.881 1426 109.5Z" fill="#E8EDF4"/>
<path d="M1426 63.5C1426 62.1193 1427.12 61 1428.5 61H1448.5C1449.88 61 1451 62.1193 1451 63.5C1451 64.8807 1449.88 66 1448.5 66H1428.5C1427.12 66 1426 64.8807 1426 63.5Z" fill="#E8EDF4"/>
<path d="M1488 78.5C1488 77.1193 1489.12 76 1490.5 76H1510.5C1511.88 76 1513 77.1193 1513 78.5C1513 79.8807 1511.88 81 1510.5 81H1490.5C1489.12 81 1488 79.8807 1488 78.5Z" fill="#E8EDF4"/>
<path d="M1519 78.5C1519 77.1193 1520.12 76 1521.5 76H1541.5C1542.88 76 1544 77.1193 1544 78.5C1544 79.8807 1542.88 81 1541.5 81H1521.5C1520.12 81 1519 79.8807 1519 78.5Z" fill="#E8EDF4"/>
<path d="M1581 78.5C1581 77.1193 1582.12 76 1583.5 76H1603.5C1604.88 76 1606 77.1193 1606 78.5C1606 79.8807 1604.88 81 1603.5 81H1583.5C1582.12 81 1581 79.8807 1581 78.5Z" fill="#E8EDF4"/>
<path d="M1519 32.5C1519 31.1193 1520.12 30 1521.5 30H1541.5C1542.88 30 1544 31.1193 1544 32.5C1544 33.8807 1542.88 35 1541.5 35H1521.5C1520.12 35 1519 33.8807 1519 32.5Z" fill="#E8EDF4"/>
<path d="M1581 32.5C1581 31.1193 1582.12 30 1583.5 30H1603.5C1604.88 30 1606 31.1193 1606 32.5C1606 33.8807 1604.88 35 1603.5 35H1583.5C1582.12 35 1581 33.8807 1581 32.5Z" fill="#E8EDF4"/>
<path d="M1581 2.5C1581 1.11929 1582.12 0 1583.5 0H1603.5C1604.88 0 1606 1.11929 1606 2.5C1606 3.88071 1604.88 5 1603.5 5H1583.5C1582.12 5 1581 3.88071 1581 2.5Z" fill="#E8EDF4"/>
<path d="M1550 78.5C1550 77.1193 1551.12 76 1552.5 76H1572.5C1573.88 76 1575 77.1193 1575 78.5C1575 79.8807 1573.88 81 1572.5 81H1552.5C1551.12 81 1550 79.8807 1550 78.5Z" fill="#E8EDF4"/>
<path d="M1488 93.5C1488 92.1193 1489.12 91 1490.5 91H1510.5C1511.88 91 1513 92.1193 1513 93.5C1513 94.8807 1511.88 96 1510.5 96H1490.5C1489.12 96 1488 94.8807 1488 93.5Z" fill="#E8EDF4"/>
<path d="M1519 93.5C1519 92.1193 1520.12 91 1521.5 91H1541.5C1542.88 91 1544 92.1193 1544 93.5C1544 94.8807 1542.88 96 1541.5 96H1521.5C1520.12 96 1519 94.8807 1519 93.5Z" fill="#E8EDF4"/>
<path d="M1581 93.5C1581 92.1193 1582.12 91 1583.5 91H1603.5C1604.88 91 1606 92.1193 1606 93.5C1606 94.8807 1604.88 96 1603.5 96H1583.5C1582.12 96 1581 94.8807 1581 93.5Z" fill="#E8EDF4"/>
<path d="M1519 47.5C1519 46.1193 1520.12 45 1521.5 45H1541.5C1542.88 45 1544 46.1193 1544 47.5C1544 48.8807 1542.88 50 1541.5 50H1521.5C1520.12 50 1519 48.8807 1519 47.5Z" fill="#E8EDF4"/>
<path d="M1581 47.5C1581 46.1193 1582.12 45 1583.5 45H1603.5C1604.88 45 1606 46.1193 1606 47.5C1606 48.8807 1604.88 50 1603.5 50H1583.5C1582.12 50 1581 48.8807 1581 47.5Z" fill="#E8EDF4"/>
<path d="M1581 17.5C1581 16.1193 1582.12 15 1583.5 15H1603.5C1604.88 15 1606 16.1193 1606 17.5C1606 18.8807 1604.88 20 1603.5 20H1583.5C1582.12 20 1581 18.8807 1581 17.5Z" fill="#E8EDF4"/>
<path d="M1550 93.5C1550 92.1193 1551.12 91 1552.5 91H1572.5C1573.88 91 1575 92.1193 1575 93.5C1575 94.8807 1573.88 96 1572.5 96H1552.5C1551.12 96 1550 94.8807 1550 93.5Z" fill="#E8EDF4"/>
<path d="M1550 47.5C1550 46.1193 1551.12 45 1552.5 45H1572.5C1573.88 45 1575 46.1193 1575 47.5C1575 48.8807 1573.88 50 1572.5 50H1552.5C1551.12 50 1550 48.8807 1550 47.5Z" fill="#E8EDF4"/>
<path d="M1488 109.5C1488 108.119 1489.12 107 1490.5 107H1510.5C1511.88 107 1513 108.119 1513 109.5C1513 110.881 1511.88 112 1510.5 112H1490.5C1489.12 112 1488 110.881 1488 109.5Z" fill="#E8EDF4"/>
<path d="M1519 109.5C1519 108.119 1520.12 107 1521.5 107H1541.5C1542.88 107 1544 108.119 1544 109.5C1544 110.881 1542.88 112 1541.5 112H1521.5C1520.12 112 1519 110.881 1519 109.5Z" fill="#E8EDF4"/>
<path d="M1581 109.5C1581 108.119 1582.12 107 1583.5 107H1603.5C1604.88 107 1606 108.119 1606 109.5C1606 110.881 1604.88 112 1603.5 112H1583.5C1582.12 112 1581 110.881 1581 109.5Z" fill="#E8EDF4"/>
<path d="M1519 63.5C1519 62.1193 1520.12 61 1521.5 61H1541.5C1542.88 61 1544 62.1193 1544 63.5C1544 64.8807 1542.88 66 1541.5 66H1521.5C1520.12 66 1519 64.8807 1519 63.5Z" fill="#E8EDF4"/>
<path d="M1581 63.5C1581 62.1193 1582.12 61 1583.5 61H1603.5C1604.88 61 1606 62.1193 1606 63.5C1606 64.8807 1604.88 66 1603.5 66H1583.5C1582.12 66 1581 64.8807 1581 63.5Z" fill="#E8EDF4"/>
<path d="M1550 109.5C1550 108.119 1551.12 107 1552.5 107H1572.5C1573.88 107 1575 108.119 1575 109.5C1575 110.881 1573.88 112 1572.5 112H1552.5C1551.12 112 1550 110.881 1550 109.5Z" fill="#E8EDF4"/>
<path d="M1550 63.5C1550 62.1193 1551.12 61 1552.5 61H1572.5C1573.88 61 1575 62.1193 1575 63.5C1575 64.8807 1573.88 66 1572.5 66H1552.5C1551.12 66 1550 64.8807 1550 63.5Z" fill="#E8EDF4"/>
<path d="M1612 78.5C1612 77.1193 1613.12 76 1614.5 76H1634.5C1635.88 76 1637 77.1193 1637 78.5C1637 79.8807 1635.88 81 1634.5 81H1614.5C1613.12 81 1612 79.8807 1612 78.5Z" fill="#E8EDF4"/>
<path d="M1643 78.5C1643 77.1193 1644.12 76 1645.5 76H1665.5C1666.88 76 1668 77.1193 1668 78.5C1668 79.8807 1666.88 81 1665.5 81H1645.5C1644.12 81 1643 79.8807 1643 78.5Z" fill="#E8EDF4"/>
<path d="M1705 78.5C1705 77.1193 1706.12 76 1707.5 76H1727.5C1728.88 76 1730 77.1193 1730 78.5C1730 79.8807 1728.88 81 1727.5 81H1707.5C1706.12 81 1705 79.8807 1705 78.5Z" fill="#E8EDF4"/>
<path d="M1643 32.5C1643 31.1193 1644.12 30 1645.5 30H1665.5C1666.88 30 1668 31.1193 1668 32.5C1668 33.8807 1666.88 35 1665.5 35H1645.5C1644.12 35 1643 33.8807 1643 32.5Z" fill="#E8EDF4"/>
<path d="M1705 32.5C1705 31.1193 1706.12 30 1707.5 30H1727.5C1728.88 30 1730 31.1193 1730 32.5C1730 33.8807 1728.88 35 1727.5 35H1707.5C1706.12 35 1705 33.8807 1705 32.5Z" fill="#E8EDF4"/>
<path d="M1705 2.5C1705 1.11929 1706.12 0 1707.5 0H1727.5C1728.88 0 1730 1.11929 1730 2.5C1730 3.88071 1728.88 5 1727.5 5H1707.5C1706.12 5 1705 3.88071 1705 2.5Z" fill="#E8EDF4"/>
<path d="M1674 78.5C1674 77.1193 1675.12 76 1676.5 76H1696.5C1697.88 76 1699 77.1193 1699 78.5C1699 79.8807 1697.88 81 1696.5 81H1676.5C1675.12 81 1674 79.8807 1674 78.5Z" fill="#E8EDF4"/>
<path d="M1612 93.5C1612 92.1193 1613.12 91 1614.5 91H1634.5C1635.88 91 1637 92.1193 1637 93.5C1637 94.8807 1635.88 96 1634.5 96H1614.5C1613.12 96 1612 94.8807 1612 93.5Z" fill="#E8EDF4"/>
<path d="M1643 93.5C1643 92.1193 1644.12 91 1645.5 91H1665.5C1666.88 91 1668 92.1193 1668 93.5C1668 94.8807 1666.88 96 1665.5 96H1645.5C1644.12 96 1643 94.8807 1643 93.5Z" fill="#E8EDF4"/>
<path d="M1705 93.5C1705 92.1193 1706.12 91 1707.5 91H1727.5C1728.88 91 1730 92.1193 1730 93.5C1730 94.8807 1728.88 96 1727.5 96H1707.5C1706.12 96 1705 94.8807 1705 93.5Z" fill="#E8EDF4"/>
<path d="M1643 47.5C1643 46.1193 1644.12 45 1645.5 45H1665.5C1666.88 45 1668 46.1193 1668 47.5C1668 48.8807 1666.88 50 1665.5 50H1645.5C1644.12 50 1643 48.8807 1643 47.5Z" fill="#E8EDF4"/>
<path d="M1705 47.5C1705 46.1193 1706.12 45 1707.5 45H1727.5C1728.88 45 1730 46.1193 1730 47.5C1730 48.8807 1728.88 50 1727.5 50H1707.5C1706.12 50 1705 48.8807 1705 47.5Z" fill="#E8EDF4"/>
<path d="M1705 17.5C1705 16.1193 1706.12 15 1707.5 15H1727.5C1728.88 15 1730 16.1193 1730 17.5C1730 18.8807 1728.88 20 1727.5 20H1707.5C1706.12 20 1705 18.8807 1705 17.5Z" fill="#E8EDF4"/>
<path d="M1674 93.5C1674 92.1193 1675.12 91 1676.5 91H1696.5C1697.88 91 1699 92.1193 1699 93.5C1699 94.8807 1697.88 96 1696.5 96H1676.5C1675.12 96 1674 94.8807 1674 93.5Z" fill="#E8EDF4"/>
<path d="M1674 47.5C1674 46.1193 1675.12 45 1676.5 45H1696.5C1697.88 45 1699 46.1193 1699 47.5C1699 48.8807 1697.88 50 1696.5 50H1676.5C1675.12 50 1674 48.8807 1674 47.5Z" fill="#E8EDF4"/>
<path d="M1612 109.5C1612 108.119 1613.12 107 1614.5 107H1634.5C1635.88 107 1637 108.119 1637 109.5C1637 110.881 1635.88 112 1634.5 112H1614.5C1613.12 112 1612 110.881 1612 109.5Z" fill="#E8EDF4"/>
<path d="M1643 109.5C1643 108.119 1644.12 107 1645.5 107H1665.5C1666.88 107 1668 108.119 1668 109.5C1668 110.881 1666.88 112 1665.5 112H1645.5C1644.12 112 1643 110.881 1643 109.5Z" fill="#E8EDF4"/>
<path d="M1705 109.5C1705 108.119 1706.12 107 1707.5 107H1727.5C1728.88 107 1730 108.119 1730 109.5C1730 110.881 1728.88 112 1727.5 112H1707.5C1706.12 112 1705 110.881 1705 109.5Z" fill="#E8EDF4"/>
<path d="M1643 63.5C1643 62.1193 1644.12 61 1645.5 61H1665.5C1666.88 61 1668 62.1193 1668 63.5C1668 64.8807 1666.88 66 1665.5 66H1645.5C1644.12 66 1643 64.8807 1643 63.5Z" fill="#E8EDF4"/>
<path d="M1705 63.5C1705 62.1193 1706.12 61 1707.5 61H1727.5C1728.88 61 1730 62.1193 1730 63.5C1730 64.8807 1728.88 66 1727.5 66H1707.5C1706.12 66 1705 64.8807 1705 63.5Z" fill="#E8EDF4"/>
<path d="M1674 109.5C1674 108.119 1675.12 107 1676.5 107H1696.5C1697.88 107 1699 108.119 1699 109.5C1699 110.881 1697.88 112 1696.5 112H1676.5C1675.12 112 1674 110.881 1674 109.5Z" fill="#E8EDF4"/>
<path d="M1674 63.5C1674 62.1193 1675.12 61 1676.5 61H1696.5C1697.88 61 1699 62.1193 1699 63.5C1699 64.8807 1697.88 66 1696.5 66H1676.5C1675.12 66 1674 64.8807 1674 63.5Z" fill="#E8EDF4"/>
<path d="M1736 78.5C1736 77.1193 1737.12 76 1738.5 76H1758.5C1759.88 76 1761 77.1193 1761 78.5C1761 79.8807 1759.88 81 1758.5 81H1738.5C1737.12 81 1736 79.8807 1736 78.5Z" fill="#E8EDF4"/>
<path d="M1767 78.5C1767 77.1193 1768.12 76 1769.5 76H1789.5C1790.88 76 1792 77.1193 1792 78.5C1792 79.8807 1790.88 81 1789.5 81H1769.5C1768.12 81 1767 79.8807 1767 78.5Z" fill="#E8EDF4"/>
<path d="M1829 78.5C1829 77.1193 1830.12 76 1831.5 76H1851.5C1852.88 76 1854 77.1193 1854 78.5C1854 79.8807 1852.88 81 1851.5 81H1831.5C1830.12 81 1829 79.8807 1829 78.5Z" fill="#E8EDF4"/>
<path d="M1767 32.5C1767 31.1193 1768.12 30 1769.5 30H1789.5C1790.88 30 1792 31.1193 1792 32.5C1792 33.8807 1790.88 35 1789.5 35H1769.5C1768.12 35 1767 33.8807 1767 32.5Z" fill="#E8EDF4"/>
<path d="M1829 32.5C1829 31.1193 1830.12 30 1831.5 30H1851.5C1852.88 30 1854 31.1193 1854 32.5C1854 33.8807 1852.88 35 1851.5 35H1831.5C1830.12 35 1829 33.8807 1829 32.5Z" fill="#E8EDF4"/>
<path d="M1829 2.5C1829 1.11929 1830.12 0 1831.5 0H1851.5C1852.88 0 1854 1.11929 1854 2.5C1854 3.88071 1852.88 5 1851.5 5H1831.5C1830.12 5 1829 3.88071 1829 2.5Z" fill="#E8EDF4"/>
<path d="M1798 78.5C1798 77.1193 1799.12 76 1800.5 76H1820.5C1821.88 76 1823 77.1193 1823 78.5C1823 79.8807 1821.88 81 1820.5 81H1800.5C1799.12 81 1798 79.8807 1798 78.5Z" fill="#E8EDF4"/>
<path d="M1736 93.5C1736 92.1193 1737.12 91 1738.5 91H1758.5C1759.88 91 1761 92.1193 1761 93.5C1761 94.8807 1759.88 96 1758.5 96H1738.5C1737.12 96 1736 94.8807 1736 93.5Z" fill="#E8EDF4"/>
<path d="M1767 93.5C1767 92.1193 1768.12 91 1769.5 91H1789.5C1790.88 91 1792 92.1193 1792 93.5C1792 94.8807 1790.88 96 1789.5 96H1769.5C1768.12 96 1767 94.8807 1767 93.5Z" fill="#E8EDF4"/>
<path d="M1829 93.5C1829 92.1193 1830.12 91 1831.5 91H1851.5C1852.88 91 1854 92.1193 1854 93.5C1854 94.8807 1852.88 96 1851.5 96H1831.5C1830.12 96 1829 94.8807 1829 93.5Z" fill="#E8EDF4"/>
<path d="M1767 47.5C1767 46.1193 1768.12 45 1769.5 45H1789.5C1790.88 45 1792 46.1193 1792 47.5C1792 48.8807 1790.88 50 1789.5 50H1769.5C1768.12 50 1767 48.8807 1767 47.5Z" fill="#E8EDF4"/>
<path d="M1829 47.5C1829 46.1193 1830.12 45 1831.5 45H1851.5C1852.88 45 1854 46.1193 1854 47.5C1854 48.8807 1852.88 50 1851.5 50H1831.5C1830.12 50 1829 48.8807 1829 47.5Z" fill="#E8EDF4"/>
<path d="M1829 17.5C1829 16.1193 1830.12 15 1831.5 15H1851.5C1852.88 15 1854 16.1193 1854 17.5C1854 18.8807 1852.88 20 1851.5 20H1831.5C1830.12 20 1829 18.8807 1829 17.5Z" fill="#E8EDF4"/>
<path d="M1798 93.5C1798 92.1193 1799.12 91 1800.5 91H1820.5C1821.88 91 1823 92.1193 1823 93.5C1823 94.8807 1821.88 96 1820.5 96H1800.5C1799.12 96 1798 94.8807 1798 93.5Z" fill="#E8EDF4"/>
<path d="M1798 47.5C1798 46.1193 1799.12 45 1800.5 45H1820.5C1821.88 45 1823 46.1193 1823 47.5C1823 48.8807 1821.88 50 1820.5 50H1800.5C1799.12 50 1798 48.8807 1798 47.5Z" fill="#E8EDF4"/>
<path d="M1736 109.5C1736 108.119 1737.12 107 1738.5 107H1758.5C1759.88 107 1761 108.119 1761 109.5C1761 110.881 1759.88 112 1758.5 112H1738.5C1737.12 112 1736 110.881 1736 109.5Z" fill="#E8EDF4"/>
<path d="M1767 109.5C1767 108.119 1768.12 107 1769.5 107H1789.5C1790.88 107 1792 108.119 1792 109.5C1792 110.881 1790.88 112 1789.5 112H1769.5C1768.12 112 1767 110.881 1767 109.5Z" fill="#E8EDF4"/>
<path d="M1829 109.5C1829 108.119 1830.12 107 1831.5 107H1851.5C1852.88 107 1854 108.119 1854 109.5C1854 110.881 1852.88 112 1851.5 112H1831.5C1830.12 112 1829 110.881 1829 109.5Z" fill="#E8EDF4"/>
<path d="M1767 63.5C1767 62.1193 1768.12 61 1769.5 61H1789.5C1790.88 61 1792 62.1193 1792 63.5C1792 64.8807 1790.88 66 1789.5 66H1769.5C1768.12 66 1767 64.8807 1767 63.5Z" fill="#E8EDF4"/>
<path d="M1829 63.5C1829 62.1193 1830.12 61 1831.5 61H1851.5C1852.88 61 1854 62.1193 1854 63.5C1854 64.8807 1852.88 66 1851.5 66H1831.5C1830.12 66 1829 64.8807 1829 63.5Z" fill="#E8EDF4"/>
<path d="M1798 109.5C1798 108.119 1799.12 107 1800.5 107H1820.5C1821.88 107 1823 108.119 1823 109.5C1823 110.881 1821.88 112 1820.5 112H1800.5C1799.12 112 1798 110.881 1798 109.5Z" fill="#E8EDF4"/>
<path d="M1798 63.5C1798 62.1193 1799.12 61 1800.5 61H1820.5C1821.88 61 1823 62.1193 1823 63.5C1823 64.8807 1821.88 66 1820.5 66H1800.5C1799.12 66 1798 64.8807 1798 63.5Z" fill="#E8EDF4"/>
<path d="M1860 78.5C1860 77.1193 1861.12 76 1862.5 76H1882.5C1883.88 76 1885 77.1193 1885 78.5C1885 79.8807 1883.88 81 1882.5 81H1862.5C1861.12 81 1860 79.8807 1860 78.5Z" fill="#E8EDF4"/>
<path d="M1891 78.5C1891 77.1193 1892.12 76 1893.5 76H1913.5C1914.88 76 1916 77.1193 1916 78.5C1916 79.8807 1914.88 81 1913.5 81H1893.5C1892.12 81 1891 79.8807 1891 78.5Z" fill="#E8EDF4"/>
<path d="M1953 78.5C1953 77.1193 1954.12 76 1955.5 76H1975.5C1976.88 76 1978 77.1193 1978 78.5C1978 79.8807 1976.88 81 1975.5 81H1955.5C1954.12 81 1953 79.8807 1953 78.5Z" fill="#E8EDF4"/>
<path d="M1891 32.5C1891 31.1193 1892.12 30 1893.5 30H1913.5C1914.88 30 1916 31.1193 1916 32.5C1916 33.8807 1914.88 35 1913.5 35H1893.5C1892.12 35 1891 33.8807 1891 32.5Z" fill="#E8EDF4"/>
<path d="M1953 32.5C1953 31.1193 1954.12 30 1955.5 30H1975.5C1976.88 30 1978 31.1193 1978 32.5C1978 33.8807 1976.88 35 1975.5 35H1955.5C1954.12 35 1953 33.8807 1953 32.5Z" fill="#E8EDF4"/>
<path d="M1953 2.5C1953 1.11929 1954.12 0 1955.5 0H1975.5C1976.88 0 1978 1.11929 1978 2.5C1978 3.88071 1976.88 5 1975.5 5H1955.5C1954.12 5 1953 3.88071 1953 2.5Z" fill="#E8EDF4"/>
<path d="M1922 78.5C1922 77.1193 1923.12 76 1924.5 76H1944.5C1945.88 76 1947 77.1193 1947 78.5C1947 79.8807 1945.88 81 1944.5 81H1924.5C1923.12 81 1922 79.8807 1922 78.5Z" fill="#E8EDF4"/>
<path d="M1860 93.5C1860 92.1193 1861.12 91 1862.5 91H1882.5C1883.88 91 1885 92.1193 1885 93.5C1885 94.8807 1883.88 96 1882.5 96H1862.5C1861.12 96 1860 94.8807 1860 93.5Z" fill="#E8EDF4"/>
<path d="M1891 93.5C1891 92.1193 1892.12 91 1893.5 91H1913.5C1914.88 91 1916 92.1193 1916 93.5C1916 94.8807 1914.88 96 1913.5 96H1893.5C1892.12 96 1891 94.8807 1891 93.5Z" fill="#E8EDF4"/>
<path d="M1953 93.5C1953 92.1193 1954.12 91 1955.5 91H1975.5C1976.88 91 1978 92.1193 1978 93.5C1978 94.8807 1976.88 96 1975.5 96H1955.5C1954.12 96 1953 94.8807 1953 93.5Z" fill="#E8EDF4"/>
<path d="M1891 47.5C1891 46.1193 1892.12 45 1893.5 45H1913.5C1914.88 45 1916 46.1193 1916 47.5C1916 48.8807 1914.88 50 1913.5 50H1893.5C1892.12 50 1891 48.8807 1891 47.5Z" fill="#E8EDF4"/>
<path d="M1953 47.5C1953 46.1193 1954.12 45 1955.5 45H1975.5C1976.88 45 1978 46.1193 1978 47.5C1978 48.8807 1976.88 50 1975.5 50H1955.5C1954.12 50 1953 48.8807 1953 47.5Z" fill="#E8EDF4"/>
<path d="M1953 17.5C1953 16.1193 1954.12 15 1955.5 15H1975.5C1976.88 15 1978 16.1193 1978 17.5C1978 18.8807 1976.88 20 1975.5 20H1955.5C1954.12 20 1953 18.8807 1953 17.5Z" fill="#E8EDF4"/>
<path d="M1922 93.5C1922 92.1193 1923.12 91 1924.5 91H1944.5C1945.88 91 1947 92.1193 1947 93.5C1947 94.8807 1945.88 96 1944.5 96H1924.5C1923.12 96 1922 94.8807 1922 93.5Z" fill="#E8EDF4"/>
<path d="M1922 47.5C1922 46.1193 1923.12 45 1924.5 45H1944.5C1945.88 45 1947 46.1193 1947 47.5C1947 48.8807 1945.88 50 1944.5 50H1924.5C1923.12 50 1922 48.8807 1922 47.5Z" fill="#E8EDF4"/>
<path d="M1860 109.5C1860 108.119 1861.12 107 1862.5 107H1882.5C1883.88 107 1885 108.119 1885 109.5C1885 110.881 1883.88 112 1882.5 112H1862.5C1861.12 112 1860 110.881 1860 109.5Z" fill="#E8EDF4"/>
<path d="M1891 109.5C1891 108.119 1892.12 107 1893.5 107H1913.5C1914.88 107 1916 108.119 1916 109.5C1916 110.881 1914.88 112 1913.5 112H1893.5C1892.12 112 1891 110.881 1891 109.5Z" fill="#E8EDF4"/>
<path d="M1953 109.5C1953 108.119 1954.12 107 1955.5 107H1975.5C1976.88 107 1978 108.119 1978 109.5C1978 110.881 1976.88 112 1975.5 112H1955.5C1954.12 112 1953 110.881 1953 109.5Z" fill="#E8EDF4"/>
<path d="M1891 63.5C1891 62.1193 1892.12 61 1893.5 61H1913.5C1914.88 61 1916 62.1193 1916 63.5C1916 64.8807 1914.88 66 1913.5 66H1893.5C1892.12 66 1891 64.8807 1891 63.5Z" fill="#E8EDF4"/>
<path d="M1953 63.5C1953 62.1193 1954.12 61 1955.5 61H1975.5C1976.88 61 1978 62.1193 1978 63.5C1978 64.8807 1976.88 66 1975.5 66H1955.5C1954.12 66 1953 64.8807 1953 63.5Z" fill="#E8EDF4"/>
<path d="M1922 109.5C1922 108.119 1923.12 107 1924.5 107H1944.5C1945.88 107 1947 108.119 1947 109.5C1947 110.881 1945.88 112 1944.5 112H1924.5C1923.12 112 1922 110.881 1922 109.5Z" fill="#E8EDF4"/>
<path d="M1922 63.5C1922 62.1193 1923.12 61 1924.5 61H1944.5C1945.88 61 1947 62.1193 1947 63.5C1947 64.8807 1945.88 66 1944.5 66H1924.5C1923.12 66 1922 64.8807 1922 63.5Z" fill="#E8EDF4"/>
</svg>
