<svg width="30" height="30" viewBox="0 0 30 30" fill="none" xmlns="http://www.w3.org/2000/svg">
<path d="M28.9353 3.2325L22.7637 0.263437C22.4146 0.094335 22.0216 0.0382263 21.6391 0.102916C21.2567 0.167605 20.904 0.349877 20.6299 0.624374L8.809 11.4103L3.65744 7.50375C3.42543 7.32638 3.13853 7.23607 2.84675 7.24858C2.55498 7.26109 2.27686 7.37561 2.06088 7.57219L0.410878 9.07594C0.281913 9.19248 0.178741 9.3347 0.107983 9.49347C0.0372254 9.65224 0.000445416 9.82405 4.02058e-06 9.99787C-0.000437375 10.1717 0.0354696 10.3437 0.10542 10.5028C0.175371 10.6619 0.277819 10.8047 0.40619 10.9219L4.87431 14.9991L0.40619 19.0763C0.277819 19.1934 0.175371 19.3362 0.10542 19.4953C0.0354696 19.6544 -0.000437375 19.8264 4.02058e-06 20.0003C0.000445416 20.1741 0.0372254 20.3459 0.107983 20.5047C0.178741 20.6634 0.281913 20.8056 0.410878 20.9222L2.06088 22.4259C2.27686 22.6225 2.55498 22.737 2.84675 22.7495C3.13853 22.7621 3.42543 22.6717 3.65744 22.4944L8.809 18.5831L20.6356 29.3738C20.9086 29.6482 21.2606 29.8305 21.6423 29.8953C22.024 29.96 22.4164 29.9038 22.7646 29.7347L28.9418 26.7609C29.2599 26.6081 29.5282 26.3684 29.7157 26.0694C29.9032 25.7704 30.0022 25.4245 30.0012 25.0716V4.92C30.0012 4.20187 29.5859 3.54281 28.9371 3.23062L28.9353 3.2325ZM22.504 21.8119L13.5293 15L22.504 8.18813V21.8119Z" fill="#1D72D2"/>
</svg>
