<svg width="20" height="14" viewBox="0 0 20 14" fill="none" xmlns="http://www.w3.org/2000/svg">
<path d="M19.1666 5.09165C19.2078 3.89886 18.947 2.715 18.4083 1.64999C18.0428 1.21299 17.5355 0.918078 16.9749 0.816653C14.6562 0.606258 12.3279 0.520024 9.99994 0.55832C7.68048 0.518285 5.36053 0.601737 3.04994 0.80832C2.59312 0.891417 2.17037 1.10569 1.83327 1.42499C1.08327 2.11665 0.999941 3.29999 0.916608 4.29999C0.795701 6.09796 0.795701 7.90202 0.916608 9.69999C0.940716 10.2628 1.02452 10.8215 1.16661 11.3667C1.26709 11.7875 1.47038 12.1769 1.75827 12.5C2.09766 12.8362 2.53026 13.0627 2.99994 13.15C4.79654 13.3717 6.60679 13.4637 8.41661 13.425C11.3333 13.4667 13.8916 13.425 16.9166 13.1917C17.3978 13.1097 17.8426 12.8829 18.1916 12.5417C18.4249 12.3082 18.5992 12.0226 18.6999 11.7083C18.998 10.7938 19.1443 9.83674 19.1333 8.87499C19.1666 8.40832 19.1666 5.59165 19.1666 5.09165ZM8.11661 9.37499V4.21665L13.0499 6.80832C11.6666 7.57499 9.84161 8.44165 8.11661 9.37499Z" fill="#1D72D2"/>
</svg>
